<?xml version="1.0" encoding="UTF-8" standalone="no"?>
<!DOCTYPE svg PUBLIC "-//W3C//DTD SVG 1.1//EN"
 "http://www.w3.org/Graphics/SVG/1.1/DTD/svg11.dtd">
<!-- Generated by graphviz version 3.0.0 (0)
 -->
<!-- Title: dependency&#45;cruiser output Pages: 1 -->
<svg width="831pt" height="739pt"
 viewBox="0.00 0.00 831.00 739.00" xmlns="http://www.w3.org/2000/svg" xmlns:xlink="http://www.w3.org/1999/xlink">
<g id="graph0" class="graph" transform="scale(1 1) rotate(0) translate(4 735)">
<title>dependency&#45;cruiser output</title>
<polygon fill="dodgerblue" stroke="transparent" points="-4,4 -4,-735 827,-735 827,4 -4,4"/>
<g id="clust1" class="cluster">
<title>cluster_src</title>
<polygon fill="dodgerblue" stroke="white" points="8,-8 8,-723 815,-723 815,-8 8,-8"/>
<text text-anchor="middle" x="411.5" y="-711.8" font-family="IBM Plex Sans Bold" font-size="9.00" fill="white">src</text>
</g>
<g id="clust2" class="cluster">
<title>cluster_src/components</title>
<polygon fill="dodgerblue" stroke="white" points="16,-16 16,-487 799,-487 799,-16 16,-16"/>
<text text-anchor="middle" x="407.5" y="-475.8" font-family="IBM Plex Sans Bold" font-size="9.00" fill="white">components</text>
</g>
<g id="clust3" class="cluster">
<title>cluster_src/layouts</title>
<polygon fill="dodgerblue" stroke="white" points="418,-617 418,-670 512,-670 512,-617 418,-617"/>
<text text-anchor="middle" x="465" y="-658.8" font-family="IBM Plex Sans Bold" font-size="9.00" fill="white">layouts</text>
</g>
<g id="clust4" class="cluster">
<title>cluster_src/pages</title>
<polygon fill="dodgerblue" stroke="white" points="334,-495 334,-609 662,-609 662,-495 334,-495"/>
<text text-anchor="middle" x="498" y="-597.8" font-family="IBM Plex Sans Bold" font-size="9.00" fill="white">pages</text>
</g>
<g id="clust5" class="cluster">
<title>cluster_src/pages/user</title>
<polygon fill="dodgerblue" stroke="white" points="342,-503 342,-556 504,-556 504,-503 342,-503"/>
<text text-anchor="middle" x="423" y="-544.8" font-family="IBM Plex Sans Bold" font-size="9.00" fill="white">user</text>
</g>
<!-- src/components/Avatar.jsx -->
<g id="node1" class="node">
<title>src/components/Avatar.jsx</title>
<g id="a_node1"><a xlink:href="src/components/Avatar.jsx" xlink:title="Avatar.jsx">
<path fill="#2258aa" stroke="white" d="M264.5,-91.5C264.5,-91.5 381.5,-91.5 381.5,-91.5 387.5,-91.5 393.5,-97.5 393.5,-103.5 393.5,-103.5 393.5,-117.5 393.5,-117.5 393.5,-123.5 387.5,-129.5 381.5,-129.5 381.5,-129.5 264.5,-129.5 264.5,-129.5 258.5,-129.5 252.5,-123.5 252.5,-117.5 252.5,-117.5 252.5,-103.5 252.5,-103.5 252.5,-97.5 258.5,-91.5 264.5,-91.5"/>
<text text-anchor="middle" x="279.5" y="-108.3" font-family="IBM Plex Sans" font-size="9.00" fill="white">Avatar.jsx</text>
<polyline fill="none" stroke="white" points="306.5,-91.5 306.5,-129.5 "/>
<text text-anchor="middle" x="350" y="-118.3" font-family="IBM Plex Sans" font-size="9.00" fill="white">profileLink: string</text>
<text text-anchor="middle" x="350" y="-108.3" font-family="IBM Plex Sans" font-size="9.00" fill="white">picture: string</text>
<text text-anchor="middle" x="350" y="-98.3" font-family="IBM Plex Sans" font-size="9.00" fill="white">name: string</text>
</a>
</g>
</g>
<!-- src/components/FriendButton.jsx -->
<g id="node2" class="node">
<title>src/components/FriendButton.jsx</title>
<g id="a_node2"><a xlink:href="src/components/FriendButton.jsx" xlink:title="FriendButton.jsx">
<path fill="#2258aa" stroke="white" d="M436.5,-91.5C436.5,-91.5 583.5,-91.5 583.5,-91.5 589.5,-91.5 595.5,-97.5 595.5,-103.5 595.5,-103.5 595.5,-117.5 595.5,-117.5 595.5,-123.5 589.5,-129.5 583.5,-129.5 583.5,-129.5 436.5,-129.5 436.5,-129.5 430.5,-129.5 424.5,-123.5 424.5,-117.5 424.5,-117.5 424.5,-103.5 424.5,-103.5 424.5,-97.5 430.5,-91.5 436.5,-91.5"/>
<text text-anchor="middle" x="466" y="-108.3" font-family="IBM Plex Sans" font-size="9.00" fill="white">FriendButton.jsx</text>
<polyline fill="none" stroke="white" points="507.5,-91.5 507.5,-129.5 "/>
<text text-anchor="middle" x="551.5" y="-118.3" font-family="IBM Plex Sans" font-size="9.00" fill="white">action: function</text>
<text text-anchor="middle" x="551.5" y="-108.3" font-family="IBM Plex Sans" font-size="9.00" fill="white">isFriend: boolean</text>
<text text-anchor="middle" x="551.5" y="-98.3" font-family="IBM Plex Sans" font-size="9.00" fill="white">className: string</text>
</a>
</g>
</g>
<!-- src/components/SimpleButton.jsx -->
<g id="node3" class="node">
<title>src/components/SimpleButton.jsx</title>
<g id="a_node3"><a xlink:href="src/components/SimpleButton.jsx" xlink:title="SimpleButton.jsx">
<path fill="#2258aa" stroke="white" d="M435,-24.5C435,-24.5 585,-24.5 585,-24.5 591,-24.5 597,-30.5 597,-36.5 597,-36.5 597,-60.5 597,-60.5 597,-66.5 591,-72.5 585,-72.5 585,-72.5 435,-72.5 435,-72.5 429,-72.5 423,-66.5 423,-60.5 423,-60.5 423,-36.5 423,-36.5 423,-30.5 429,-24.5 435,-24.5"/>
<text text-anchor="middle" x="466" y="-46.3" font-family="IBM Plex Sans" font-size="9.00" fill="white">SimpleButton.jsx</text>
<polyline fill="none" stroke="white" points="509,-24.5 509,-72.5 "/>
<text text-anchor="middle" x="553" y="-61.3" font-family="IBM Plex Sans" font-size="9.00" fill="white">onClick: function</text>
<text text-anchor="middle" x="553" y="-51.3" font-family="IBM Plex Sans" font-size="9.00" fill="white">className: string</text>
<text text-anchor="middle" x="553" y="-41.3" font-family="IBM Plex Sans" font-size="9.00" fill="white">label: string</text>
<text text-anchor="middle" x="553" y="-31.3" font-family="IBM Plex Sans" font-size="9.00" fill="white">round: boolean</text>
</a>
</g>
</g>
<!-- src/components/FriendButton.jsx&#45;&gt;src/components/SimpleButton.jsx -->
<g id="edge1" class="edge">
<title>src/components/FriendButton.jsx&#45;&gt;src/components/SimpleButton.jsx</title>
<path fill="none" stroke="white" d="M510,-91.22C510,-91.22 510,-77.8 510,-77.8"/>
<polygon fill="white" stroke="white" points="510,-72.8 512.25,-77.8 510,-75.3 510,-77.8 510,-77.8 510,-77.8 510,-75.3 507.75,-77.8 510,-72.8 510,-72.8"/>
</g>
<!-- src/components/Input.jsx -->
<g id="node4" class="node">
<title>src/components/Input.jsx</title>
<g id="a_node4"><a xlink:href="src/components/Input.jsx" xlink:title="Input.jsx">
<path fill="#2258aa" stroke="white" d="M532.5,-382.5C532.5,-382.5 653.5,-382.5 653.5,-382.5 659.5,-382.5 665.5,-388.5 665.5,-394.5 665.5,-394.5 665.5,-448.5 665.5,-448.5 665.5,-454.5 659.5,-460.5 653.5,-460.5 653.5,-460.5 532.5,-460.5 532.5,-460.5 526.5,-460.5 520.5,-454.5 520.5,-448.5 520.5,-448.5 520.5,-394.5 520.5,-394.5 520.5,-388.5 526.5,-382.5 532.5,-382.5"/>
<text text-anchor="middle" x="547" y="-419.3" font-family="IBM Plex Sans" font-size="9.00" fill="white">Input.jsx</text>
<polyline fill="none" stroke="white" points="573.5,-382.5 573.5,-460.5 "/>
<text text-anchor="middle" x="619.5" y="-449.3" font-family="IBM Plex Sans" font-size="9.00" fill="white">name: string</text>
<text text-anchor="middle" x="619.5" y="-439.3" font-family="IBM Plex Sans" font-size="9.00" fill="white">label: string</text>
<text text-anchor="middle" x="619.5" y="-429.3" font-family="IBM Plex Sans" font-size="9.00" fill="white">value: string</text>
<text text-anchor="middle" x="619.5" y="-419.3" font-family="IBM Plex Sans" font-size="9.00" fill="white">placeholder: string</text>
<text text-anchor="middle" x="619.5" y="-409.3" font-family="IBM Plex Sans" font-size="9.00" fill="white">type: string</text>
<text text-anchor="middle" x="619.5" y="-399.3" font-family="IBM Plex Sans" font-size="9.00" fill="white">required: boolean</text>
<text text-anchor="middle" x="619.5" y="-389.3" font-family="IBM Plex Sans" font-size="9.00" fill="white">listener: function</text>
</a>
</g>
</g>
<!-- src/components/Message.jsx -->
<g id="node5" class="node">
<title>src/components/Message.jsx</title>
<g id="a_node5"><a xlink:href="src/components/Message.jsx" xlink:title="Message.jsx">
<path fill="#2258aa" stroke="white" d="M336.5,-230.5C336.5,-230.5 483.5,-230.5 483.5,-230.5 489.5,-230.5 495.5,-236.5 495.5,-242.5 495.5,-242.5 495.5,-356.5 495.5,-356.5 495.5,-362.5 489.5,-368.5 483.5,-368.5 483.5,-368.5 336.5,-368.5 336.5,-368.5 330.5,-368.5 324.5,-362.5 324.5,-356.5 324.5,-356.5 324.5,-242.5 324.5,-242.5 324.5,-236.5 330.5,-230.5 336.5,-230.5"/>
<text text-anchor="middle" x="357" y="-297.3" font-family="IBM Plex Sans" font-size="9.00" fill="white">Message.jsx</text>
<polyline fill="none" stroke="white" points="389.5,-230.5 389.5,-368.5 "/>
<text text-anchor="middle" x="442.5" y="-357.3" font-family="IBM Plex Sans" font-size="9.00" fill="white">message: string</text>
<text text-anchor="middle" x="442.5" y="-347.3" font-family="IBM Plex Sans" font-size="9.00" fill="white">author: shape</text>
<text text-anchor="middle" x="442.5" y="-337.3" font-family="IBM Plex Sans" font-size="9.00" fill="white">name: string</text>
<text text-anchor="middle" x="442.5" y="-327.3" font-family="IBM Plex Sans" font-size="9.00" fill="white">profileLink: string</text>
<text text-anchor="middle" x="442.5" y="-317.3" font-family="IBM Plex Sans" font-size="9.00" fill="white">picture: string</text>
<text text-anchor="middle" x="442.5" y="-307.3" font-family="IBM Plex Sans" font-size="9.00" fill="white">description: string</text>
<text text-anchor="middle" x="442.5" y="-297.3" font-family="IBM Plex Sans" font-size="9.00" fill="white">date: string</text>
<text text-anchor="middle" x="442.5" y="-287.3" font-family="IBM Plex Sans" font-size="9.00" fill="white">isFriend: boolean</text>
<text text-anchor="middle" x="442.5" y="-277.3" font-family="IBM Plex Sans" font-size="9.00" fill="white">friendAction: function</text>
<text text-anchor="middle" x="442.5" y="-267.3" font-family="IBM Plex Sans" font-size="9.00" fill="white">date: string</text>
<text text-anchor="middle" x="442.5" y="-257.3" font-family="IBM Plex Sans" font-size="9.00" fill="white">isFriend: boolean</text>
<text text-anchor="middle" x="442.5" y="-247.3" font-family="IBM Plex Sans" font-size="9.00" fill="white">friendAction: function</text>
<text text-anchor="middle" x="442.5" y="-237.3" font-family="IBM Plex Sans" font-size="9.00" fill="white">fromHimself: boolean</text>
</a>
</g>
</g>
<!-- src/components/Message.jsx&#45;&gt;src/components/Avatar.jsx -->
<g id="edge2" class="edge">
<title>src/components/Message.jsx&#45;&gt;src/components/Avatar.jsx</title>
<path fill="none" stroke="white" d="M332.75,-230.46C332.75,-230.46 332.75,-134.88 332.75,-134.88"/>
<polygon fill="white" stroke="white" points="332.75,-129.88 335,-134.88 332.75,-132.38 332.75,-134.88 332.75,-134.88 332.75,-134.88 332.75,-132.38 330.5,-134.88 332.75,-129.88 332.75,-129.88"/>
</g>
<!-- src/components/Message.jsx&#45;&gt;src/components/SimpleButton.jsx -->
<g id="edge3" class="edge">
<title>src/components/Message.jsx&#45;&gt;src/components/SimpleButton.jsx</title>
<path fill="none" stroke="white" d="M495.61,-299C547.3,-299 603.25,-299 603.25,-299 603.25,-299 603.25,-60 603.25,-60 603.25,-60 602.13,-60 602.13,-60"/>
<polygon fill="white" stroke="white" points="597.13,-60 602.13,-57.75 599.63,-60 602.13,-60 602.13,-60 602.13,-60 599.63,-60 602.13,-62.25 597.13,-60 597.13,-60"/>
</g>
<!-- src/components/User.jsx -->
<g id="node6" class="node">
<title>src/components/User.jsx</title>
<g id="a_node6"><a xlink:href="src/components/User.jsx" xlink:title="isFriend, profileLink, picture, name, description, action">
<path fill="#2258aa" stroke="white" d="M353,-148.5C353,-148.5 467,-148.5 467,-148.5 473,-148.5 479,-154.5 479,-160.5 479,-160.5 479,-204.5 479,-204.5 479,-210.5 473,-216.5 467,-216.5 467,-216.5 353,-216.5 353,-216.5 347,-216.5 341,-210.5 341,-204.5 341,-204.5 341,-160.5 341,-160.5 341,-154.5 347,-148.5 353,-148.5"/>
<text text-anchor="middle" x="365" y="-180.3" font-family="IBM Plex Sans" font-size="9.00" fill="white">User.jsx</text>
<polyline fill="none" stroke="white" points="389,-148.5 389,-216.5 "/>
<text text-anchor="middle" x="434" y="-205.3" font-family="IBM Plex Sans" font-size="9.00" fill="white">isFriend: boolean</text>
<text text-anchor="middle" x="434" y="-195.3" font-family="IBM Plex Sans" font-size="9.00" fill="white">profileLink: string</text>
<text text-anchor="middle" x="434" y="-185.3" font-family="IBM Plex Sans" font-size="9.00" fill="white">picture: string</text>
<text text-anchor="middle" x="434" y="-175.3" font-family="IBM Plex Sans" font-size="9.00" fill="white">name: string</text>
<text text-anchor="middle" x="434" y="-165.3" font-family="IBM Plex Sans" font-size="9.00" fill="white">description: string</text>
<text text-anchor="middle" x="434" y="-155.3" font-family="IBM Plex Sans" font-size="9.00" fill="white">action: function</text>
</a>
</g>
</g>
<!-- src/components/Message.jsx&#45;&gt;src/components/User.jsx -->
<g id="edge4" class="edge">
<title>src/components/Message.jsx&#45;&gt;src/components/User.jsx</title>
<path fill="none" stroke="white" d="M410,-230.43C410,-230.43 410,-221.6 410,-221.6"/>
<polygon fill="white" stroke="white" points="410,-216.6 412.25,-221.6 410,-219.1 410,-221.6 410,-221.6 410,-221.6 410,-219.1 407.75,-221.6 410,-216.6 410,-216.6"/>
</g>
<!-- src/components/User.jsx&#45;&gt;src/components/Avatar.jsx -->
<g id="edge9" class="edge">
<title>src/components/User.jsx&#45;&gt;src/components/Avatar.jsx</title>
<path fill="none" stroke="white" d="M367.25,-148.19C367.25,-148.19 367.25,-134.65 367.25,-134.65"/>
<polygon fill="white" stroke="white" points="367.25,-129.65 369.5,-134.65 367.25,-132.15 367.25,-134.65 367.25,-134.65 367.25,-134.65 367.25,-132.15 365,-134.65 367.25,-129.65 367.25,-129.65"/>
</g>
<!-- src/components/User.jsx&#45;&gt;src/components/FriendButton.jsx -->
<g id="edge10" class="edge">
<title>src/components/User.jsx&#45;&gt;src/components/FriendButton.jsx</title>
<path fill="none" stroke="white" d="M451.75,-148.19C451.75,-148.19 451.75,-134.65 451.75,-134.65"/>
<polygon fill="white" stroke="white" points="451.75,-129.65 454,-134.65 451.75,-132.15 451.75,-134.65 451.75,-134.65 451.75,-134.65 451.75,-132.15 449.5,-134.65 451.75,-129.65 451.75,-129.65"/>
</g>
<!-- src/components/User.jsx&#45;&gt;src/components/SimpleButton.jsx -->
<g id="edge11" class="edge">
<title>src/components/User.jsx&#45;&gt;src/components/SimpleButton.jsx</title>
<path fill="none" stroke="white" d="M408.25,-148.21C408.25,-108.36 408.25,-48 408.25,-48 408.25,-48 417.83,-48 417.83,-48"/>
<polygon fill="white" stroke="white" points="422.83,-48 417.83,-50.25 420.33,-48 417.83,-48 417.83,-48 417.83,-48 420.33,-48 417.83,-45.75 422.83,-48 422.83,-48"/>
</g>
<!-- src/components/MessageArea.jsx -->
<g id="node7" class="node">
<title>src/components/MessageArea.jsx</title>
<g id="a_node7"><a xlink:href="src/components/MessageArea.jsx" xlink:title="MessageArea.jsx">
<path fill="#2258aa" stroke="white" d="M621.5,-91.5C621.5,-91.5 778.5,-91.5 778.5,-91.5 784.5,-91.5 790.5,-97.5 790.5,-103.5 790.5,-103.5 790.5,-117.5 790.5,-117.5 790.5,-123.5 784.5,-129.5 778.5,-129.5 778.5,-129.5 621.5,-129.5 621.5,-129.5 615.5,-129.5 609.5,-123.5 609.5,-117.5 609.5,-117.5 609.5,-103.5 609.5,-103.5 609.5,-97.5 615.5,-91.5 621.5,-91.5"/>
<text text-anchor="middle" x="652.5" y="-108.3" font-family="IBM Plex Sans" font-size="9.00" fill="white">MessageArea.jsx</text>
<polyline fill="none" stroke="white" points="695.5,-91.5 695.5,-129.5 "/>
<text text-anchor="middle" x="743" y="-118.3" font-family="IBM Plex Sans" font-size="9.00" fill="white">id: string</text>
<text text-anchor="middle" x="743" y="-108.3" font-family="IBM Plex Sans" font-size="9.00" fill="white">onSubmit: function</text>
<text text-anchor="middle" x="743" y="-98.3" font-family="IBM Plex Sans" font-size="9.00" fill="white">ref: any</text>
</a>
</g>
</g>
<!-- src/components/MessageArea.jsx&#45;&gt;src/components/SimpleButton.jsx -->
<g id="edge5" class="edge">
<title>src/components/MessageArea.jsx&#45;&gt;src/components/SimpleButton.jsx</title>
<path fill="none" stroke="white" d="M700,-91.41C700,-73.03 700,-48 700,-48 700,-48 602.21,-48 602.21,-48"/>
<polygon fill="white" stroke="white" points="597.21,-48 602.21,-45.75 599.71,-48 602.21,-48 602.21,-48 602.21,-48 599.71,-48 602.21,-50.25 597.21,-48 597.21,-48"/>
</g>
<!-- src/components/MessagesList.jsx -->
<g id="node8" class="node">
<title>src/components/MessagesList.jsx</title>
<g id="a_node8"><a xlink:href="src/components/MessagesList.jsx" xlink:title="MessagesList.jsx">
<path fill="#2258aa" stroke="white" d="M327.5,-397.5C327.5,-397.5 494.5,-397.5 494.5,-397.5 500.5,-397.5 506.5,-403.5 506.5,-409.5 506.5,-409.5 506.5,-433.5 506.5,-433.5 506.5,-439.5 500.5,-445.5 494.5,-445.5 494.5,-445.5 327.5,-445.5 327.5,-445.5 321.5,-445.5 315.5,-439.5 315.5,-433.5 315.5,-433.5 315.5,-409.5 315.5,-409.5 315.5,-403.5 321.5,-397.5 327.5,-397.5"/>
<text text-anchor="middle" x="358" y="-419.3" font-family="IBM Plex Sans" font-size="9.00" fill="white">MessagesList.jsx</text>
<polyline fill="none" stroke="white" points="400.5,-397.5 400.5,-445.5 "/>
<text text-anchor="middle" x="453.5" y="-434.3" font-family="IBM Plex Sans" font-size="9.00" fill="white">messages: array</text>
<text text-anchor="middle" x="453.5" y="-424.3" font-family="IBM Plex Sans" font-size="9.00" fill="white">friendAction: function</text>
<text text-anchor="middle" x="453.5" y="-414.3" font-family="IBM Plex Sans" font-size="9.00" fill="white">isFriend: boolean</text>
<text text-anchor="middle" x="453.5" y="-404.3" font-family="IBM Plex Sans" font-size="9.00" fill="white">fromHimself: boolean</text>
</a>
</g>
</g>
<!-- src/components/MessagesList.jsx&#45;&gt;src/components/Message.jsx -->
<g id="edge6" class="edge">
<title>src/components/MessagesList.jsx&#45;&gt;src/components/Message.jsx</title>
<path fill="none" stroke="white" d="M410,-397.4C410,-397.4 410,-373.62 410,-373.62"/>
<polygon fill="white" stroke="white" points="410,-368.62 412.25,-373.62 410,-371.12 410,-373.62 410,-373.62 410,-373.62 410,-371.12 407.75,-373.62 410,-368.62 410,-368.62"/>
</g>
<!-- src/components/NavigationPanel.jsx -->
<g id="node9" class="node">
<title>src/components/NavigationPanel.jsx</title>
<g id="a_node9"><a xlink:href="src/components/NavigationPanel.jsx" xlink:title="NavigationPanel.jsx">
<path fill="#2258aa" stroke="white" d="M72,-148.5C72,-148.5 260,-148.5 260,-148.5 266,-148.5 272,-154.5 272,-160.5 272,-160.5 272,-204.5 272,-204.5 272,-210.5 266,-216.5 260,-216.5 260,-216.5 72,-216.5 72,-216.5 66,-216.5 60,-210.5 60,-204.5 60,-204.5 60,-160.5 60,-160.5 60,-154.5 66,-148.5 72,-148.5"/>
<text text-anchor="middle" x="107.5" y="-180.3" font-family="IBM Plex Sans" font-size="9.00" fill="white">NavigationPanel.jsx</text>
<polyline fill="none" stroke="white" points="155,-148.5 155,-216.5 "/>
<text text-anchor="middle" x="213.5" y="-205.3" font-family="IBM Plex Sans" font-size="9.00" fill="white">signOut: function</text>
<text text-anchor="middle" x="213.5" y="-195.3" font-family="IBM Plex Sans" font-size="9.00" fill="white">createMessage: function</text>
<text text-anchor="middle" x="213.5" y="-185.3" font-family="IBM Plex Sans" font-size="9.00" fill="white">homePage: string</text>
<text text-anchor="middle" x="213.5" y="-175.3" font-family="IBM Plex Sans" font-size="9.00" fill="white">picture: string</text>
<text text-anchor="middle" x="213.5" y="-165.3" font-family="IBM Plex Sans" font-size="9.00" fill="white">name: string</text>
<text text-anchor="middle" x="213.5" y="-155.3" font-family="IBM Plex Sans" font-size="9.00" fill="white">profileLink: string</text>
</a>
</g>
</g>
<!-- src/components/NavigationPanel.jsx&#45;&gt;src/components/Avatar.jsx -->
<g id="edge7" class="edge">
<title>src/components/NavigationPanel.jsx&#45;&gt;src/components/Avatar.jsx</title>
<path fill="none" stroke="white" d="M262.25,-148.19C262.25,-148.19 262.25,-134.65 262.25,-134.65"/>
<polygon fill="white" stroke="white" points="262.25,-129.65 264.5,-134.65 262.25,-132.15 262.25,-134.65 262.25,-134.65 262.25,-134.65 262.25,-132.15 260,-134.65 262.25,-129.65 262.25,-129.65"/>
</g>
<!-- src/components/NavigationPanelItem.jsx -->
<g id="node10" class="node">
<title>src/components/NavigationPanelItem.jsx</title>
<g id="a_node10"><a xlink:href="src/components/NavigationPanelItem.jsx" xlink:title="NavigationPanelItem.jsx">
<path fill="#2258aa" stroke="white" d="M36.5,-86.5C36.5,-86.5 209.5,-86.5 209.5,-86.5 215.5,-86.5 221.5,-92.5 221.5,-98.5 221.5,-98.5 221.5,-122.5 221.5,-122.5 221.5,-128.5 215.5,-134.5 209.5,-134.5 209.5,-134.5 36.5,-134.5 36.5,-134.5 30.5,-134.5 24.5,-128.5 24.5,-122.5 24.5,-122.5 24.5,-98.5 24.5,-98.5 24.5,-92.5 30.5,-86.5 36.5,-86.5"/>
<text text-anchor="middle" x="81.5" y="-108.3" font-family="IBM Plex Sans" font-size="9.00" fill="white">NavigationPanelItem.jsx</text>
<polyline fill="none" stroke="white" points="138.5,-86.5 138.5,-134.5 "/>
<text text-anchor="middle" x="180" y="-123.3" font-family="IBM Plex Sans" font-size="9.00" fill="white">icon: oneOfType</text>
<text text-anchor="middle" x="180" y="-113.3" font-family="IBM Plex Sans" font-size="9.00" fill="white">text: string</text>
<text text-anchor="middle" x="180" y="-103.3" font-family="IBM Plex Sans" font-size="9.00" fill="white">link: string</text>
<text text-anchor="middle" x="180" y="-93.3" font-family="IBM Plex Sans" font-size="9.00" fill="white">action: function</text>
</a>
</g>
</g>
<!-- src/components/NavigationPanel.jsx&#45;&gt;src/components/NavigationPanelItem.jsx -->
<g id="edge8" class="edge">
<title>src/components/NavigationPanel.jsx&#45;&gt;src/components/NavigationPanelItem.jsx</title>
<path fill="none" stroke="white" d="M140.75,-148.19C140.75,-148.19 140.75,-139.89 140.75,-139.89"/>
<polygon fill="white" stroke="white" points="140.75,-134.89 143,-139.89 140.75,-137.39 140.75,-139.89 140.75,-139.89 140.75,-139.89 140.75,-137.39 138.5,-139.89 140.75,-134.89 140.75,-134.89"/>
</g>
<!-- src/index.js -->
<g id="node11" class="node">
<title>src/index.js</title>
<g id="a_node11"><a xlink:href="src/index.js" xlink:title="index.js">
<path fill="#ffffff" fill-opacity="0.200000" stroke="white" d="M444,-678.5C444,-678.5 486,-678.5 486,-678.5 489,-678.5 492,-681.5 492,-684.5 492,-684.5 492,-690.5 492,-690.5 492,-693.5 489,-696.5 486,-696.5 486,-696.5 444,-696.5 444,-696.5 441,-696.5 438,-693.5 438,-690.5 438,-690.5 438,-684.5 438,-684.5 438,-681.5 441,-678.5 444,-678.5"/>
<text text-anchor="start" x="449.5" y="-685.3" font-family="IBM Plex Sans" font-size="9.00" fill="white">index.js</text>
</a>
</g>
</g>
<!-- src/layouts/MainLayout.jsx -->
<g id="node12" class="node">
<title>src/layouts/MainLayout.jsx</title>
<g id="a_node12"><a xlink:href="src/layouts/MainLayout.jsx" xlink:title="MainLayout.jsx">
<path fill="#2258aa" stroke="white" d="M432.5,-625.5C432.5,-625.5 497.5,-625.5 497.5,-625.5 500.5,-625.5 503.5,-628.5 503.5,-631.5 503.5,-631.5 503.5,-637.5 503.5,-637.5 503.5,-640.5 500.5,-643.5 497.5,-643.5 497.5,-643.5 432.5,-643.5 432.5,-643.5 429.5,-643.5 426.5,-640.5 426.5,-637.5 426.5,-637.5 426.5,-631.5 426.5,-631.5 426.5,-628.5 429.5,-625.5 432.5,-625.5"/>
<text text-anchor="start" x="434.5" y="-632.3" font-family="IBM Plex Sans" font-size="9.00" fill="white">MainLayout.jsx</text>
</a>
</g>
</g>
<!-- src/index.js&#45;&gt;src/layouts/MainLayout.jsx -->
<g id="edge12" class="edge">
<title>src/index.js&#45;&gt;src/layouts/MainLayout.jsx</title>
<path fill="none" stroke="white" d="M465,-678.27C465,-678.27 465,-648.63 465,-648.63"/>
<polygon fill="white" stroke="white" points="465,-643.63 467.25,-648.63 465,-646.13 465,-648.63 465,-648.63 465,-648.63 465,-646.13 462.75,-648.63 465,-643.63 465,-643.63"/>
</g>
<!-- src/layouts/MainLayout.jsx&#45;&gt;src/components/NavigationPanel.jsx -->
<g id="edge16" class="edge">
<title>src/layouts/MainLayout.jsx&#45;&gt;src/components/NavigationPanel.jsx</title>
<path fill="none" stroke="white" d="M426.22,-634C345.32,-634 166,-634 166,-634 166,-634 166,-221.81 166,-221.81"/>
<polygon fill="white" stroke="white" points="166,-216.81 168.25,-221.81 166,-219.31 166,-221.81 166,-221.81 166,-221.81 166,-219.31 163.75,-221.81 166,-216.81 166,-216.81"/>
</g>
<!-- src/pages/Login.jsx -->
<g id="node13" class="node">
<title>src/pages/Login.jsx</title>
<g id="a_node13"><a xlink:href="src/pages/Login.jsx" xlink:title="Login.jsx">
<path fill="#2258aa" stroke="white" d="M606,-511.5C606,-511.5 648,-511.5 648,-511.5 651,-511.5 654,-514.5 654,-517.5 654,-517.5 654,-523.5 654,-523.5 654,-526.5 651,-529.5 648,-529.5 648,-529.5 606,-529.5 606,-529.5 603,-529.5 600,-526.5 600,-523.5 600,-523.5 600,-517.5 600,-517.5 600,-514.5 603,-511.5 606,-511.5"/>
<text text-anchor="start" x="609" y="-518.3" font-family="IBM Plex Sans" font-size="9.00" fill="white">Login.jsx</text>
</a>
</g>
</g>
<!-- src/layouts/MainLayout.jsx&#45;&gt;src/pages/Login.jsx -->
<g id="edge13" class="edge">
<title>src/layouts/MainLayout.jsx&#45;&gt;src/pages/Login.jsx</title>
<path fill="none" stroke="white" d="M503.8,-637C554.25,-637 636,-637 636,-637 636,-637 636,-534.64 636,-534.64"/>
<polygon fill="white" stroke="white" points="636,-529.64 638.25,-534.64 636,-532.14 636,-534.64 636,-534.64 636,-534.64 636,-532.14 633.75,-534.64 636,-529.64 636,-529.64"/>
</g>
<!-- src/pages/MainPage.jsx -->
<g id="node14" class="node">
<title>src/pages/MainPage.jsx</title>
<g id="a_node14"><a xlink:href="src/pages/MainPage.jsx" xlink:title="MainPage.jsx">
<path fill="#2258aa" stroke="white" d="M522,-564.5C522,-564.5 578,-564.5 578,-564.5 581,-564.5 584,-567.5 584,-570.5 584,-570.5 584,-576.5 584,-576.5 584,-579.5 581,-582.5 578,-582.5 578,-582.5 522,-582.5 522,-582.5 519,-582.5 516,-579.5 516,-576.5 516,-576.5 516,-570.5 516,-570.5 516,-567.5 519,-564.5 522,-564.5"/>
<text text-anchor="start" x="524" y="-571.3" font-family="IBM Plex Sans" font-size="9.00" fill="white">MainPage.jsx</text>
</a>
</g>
</g>
<!-- src/layouts/MainLayout.jsx&#45;&gt;src/pages/MainPage.jsx -->
<g id="edge14" class="edge">
<title>src/layouts/MainLayout.jsx&#45;&gt;src/pages/MainPage.jsx</title>
<path fill="none" stroke="white" d="M503.52,-631C526.01,-631 550,-631 550,-631 550,-631 550,-587.74 550,-587.74"/>
<polygon fill="white" stroke="white" points="550,-582.74 552.25,-587.74 550,-585.24 550,-587.74 550,-587.74 550,-587.74 550,-585.24 547.75,-587.74 550,-582.74 550,-582.74"/>
</g>
<!-- src/pages/UserProfile.jsx -->
<g id="node15" class="node">
<title>src/pages/UserProfile.jsx</title>
<g id="a_node15"><a xlink:href="src/pages/UserProfile.jsx" xlink:title="UserProfile.jsx">
<path fill="#2258aa" stroke="white" d="M434,-564.5C434,-564.5 496,-564.5 496,-564.5 499,-564.5 502,-567.5 502,-570.5 502,-570.5 502,-576.5 502,-576.5 502,-579.5 499,-582.5 496,-582.5 496,-582.5 434,-582.5 434,-582.5 431,-582.5 428,-579.5 428,-576.5 428,-576.5 428,-570.5 428,-570.5 428,-567.5 431,-564.5 434,-564.5"/>
<text text-anchor="start" x="436" y="-571.3" font-family="IBM Plex Sans" font-size="9.00" fill="white">UserProfile.jsx</text>
</a>
</g>
</g>
<!-- src/layouts/MainLayout.jsx&#45;&gt;src/pages/UserProfile.jsx -->
<g id="edge15" class="edge">
<title>src/layouts/MainLayout.jsx&#45;&gt;src/pages/UserProfile.jsx</title>
<path fill="none" stroke="white" d="M465,-625.5C465,-625.5 465,-587.54 465,-587.54"/>
<polygon fill="white" stroke="white" points="465,-582.54 467.25,-587.54 465,-585.04 465,-587.54 465,-587.54 465,-587.54 465,-585.04 462.75,-587.54 465,-582.54 465,-582.54"/>
</g>
<!-- src/pages/Login.jsx&#45;&gt;src/components/SimpleButton.jsx -->
<g id="edge20" class="edge">
<title>src/pages/Login.jsx&#45;&gt;src/components/SimpleButton.jsx</title>
<path fill="none" stroke="white" d="M654.17,-520C704.8,-520 808.5,-520 808.5,-520 808.5,-520 808.5,-36 808.5,-36 808.5,-36 602.14,-36 602.14,-36"/>
<polygon fill="white" stroke="white" points="597.14,-36 602.14,-33.75 599.64,-36 602.14,-36 602.14,-36 602.14,-36 599.64,-36 602.14,-38.25 597.14,-36 597.14,-36"/>
</g>
<!-- src/pages/Login.jsx&#45;&gt;src/components/Input.jsx -->
<g id="edge19" class="edge">
<title>src/pages/Login.jsx&#45;&gt;src/components/Input.jsx</title>
<path fill="none" stroke="white" d="M627,-511.36C627,-511.36 627,-465.91 627,-465.91"/>
<polygon fill="white" stroke="white" points="627,-460.91 629.25,-465.91 627,-463.41 627,-465.91 627,-465.91 627,-465.91 627,-463.41 624.75,-465.91 627,-460.91 627,-460.91"/>
</g>
<!-- src/pages/MainPage.jsx&#45;&gt;src/pages/Login.jsx -->
<g id="edge22" class="edge">
<title>src/pages/MainPage.jsx&#45;&gt;src/pages/Login.jsx</title>
<path fill="none" stroke="white" d="M584.4,-573C601.26,-573 618,-573 618,-573 618,-573 618,-534.64 618,-534.64"/>
<polygon fill="white" stroke="white" points="618,-529.64 620.25,-534.64 618,-532.14 618,-534.64 618,-534.64 618,-534.64 618,-532.14 615.75,-534.64 618,-529.64 618,-529.64"/>
</g>
<!-- src/pages/HomeFeed.jsx -->
<g id="node16" class="node">
<title>src/pages/HomeFeed.jsx</title>
<g id="a_node16"><a xlink:href="src/pages/HomeFeed.jsx" xlink:title="HomeFeed.jsx">
<path fill="#2258aa" stroke="white" d="M518,-511.5C518,-511.5 580,-511.5 580,-511.5 583,-511.5 586,-514.5 586,-517.5 586,-517.5 586,-523.5 586,-523.5 586,-526.5 583,-529.5 580,-529.5 580,-529.5 518,-529.5 518,-529.5 515,-529.5 512,-526.5 512,-523.5 512,-523.5 512,-517.5 512,-517.5 512,-514.5 515,-511.5 518,-511.5"/>
<text text-anchor="start" x="520" y="-518.3" font-family="IBM Plex Sans" font-size="9.00" fill="white">HomeFeed.jsx</text>
</a>
</g>
</g>
<!-- src/pages/MainPage.jsx&#45;&gt;src/pages/HomeFeed.jsx -->
<g id="edge21" class="edge">
<title>src/pages/MainPage.jsx&#45;&gt;src/pages/HomeFeed.jsx</title>
<path fill="none" stroke="white" d="M550,-564.27C550,-564.27 550,-534.63 550,-534.63"/>
<polygon fill="white" stroke="white" points="550,-529.63 552.25,-534.63 550,-532.13 550,-534.63 550,-534.63 550,-534.63 550,-532.13 547.75,-534.63 550,-529.63 550,-529.63"/>
</g>
<!-- src/pages/UserProfile.jsx&#45;&gt;src/components/FriendButton.jsx -->
<g id="edge23" class="edge">
<title>src/pages/UserProfile.jsx&#45;&gt;src/components/FriendButton.jsx</title>
<path fill="none" stroke="white" d="M433.33,-564.47C433.33,-542.11 433.33,-486 433.33,-486 433.33,-486 515.4,-486 515.4,-486 515.4,-486 515.4,-134.64 515.4,-134.64"/>
<polygon fill="white" stroke="white" points="515.4,-129.64 517.65,-134.64 515.4,-132.14 515.4,-134.64 515.4,-134.64 515.4,-134.64 515.4,-132.14 513.15,-134.64 515.4,-129.64 515.4,-129.64"/>
</g>
<!-- src/pages/user/Friends.jsx -->
<g id="node17" class="node">
<title>src/pages/user/Friends.jsx</title>
<g id="a_node17"><a xlink:href="src/pages/user/Friends.jsx" xlink:title="Friends.jsx">
<path fill="#2258aa" stroke="white" d="M442,-511.5C442,-511.5 490,-511.5 490,-511.5 493,-511.5 496,-514.5 496,-517.5 496,-517.5 496,-523.5 496,-523.5 496,-526.5 493,-529.5 490,-529.5 490,-529.5 442,-529.5 442,-529.5 439,-529.5 436,-526.5 436,-523.5 436,-523.5 436,-517.5 436,-517.5 436,-514.5 439,-511.5 442,-511.5"/>
<text text-anchor="start" x="444" y="-518.3" font-family="IBM Plex Sans" font-size="9.00" fill="white">Friends.jsx</text>
</a>
</g>
</g>
<!-- src/pages/UserProfile.jsx&#45;&gt;src/pages/user/Friends.jsx -->
<g id="edge24" class="edge">
<title>src/pages/UserProfile.jsx&#45;&gt;src/pages/user/Friends.jsx</title>
<path fill="none" stroke="white" d="M466,-564.27C466,-564.27 466,-534.63 466,-534.63"/>
<polygon fill="white" stroke="white" points="466,-529.63 468.25,-534.63 466,-532.13 466,-534.63 466,-534.63 466,-534.63 466,-532.13 463.75,-534.63 466,-529.63 466,-529.63"/>
</g>
<!-- src/pages/user/Messages.jsx -->
<g id="node18" class="node">
<title>src/pages/user/Messages.jsx</title>
<g id="a_node18"><a xlink:href="src/pages/user/Messages.jsx" xlink:title="Messages.jsx">
<path fill="#2258aa" stroke="white" d="M356.5,-511.5C356.5,-511.5 415.5,-511.5 415.5,-511.5 418.5,-511.5 421.5,-514.5 421.5,-517.5 421.5,-517.5 421.5,-523.5 421.5,-523.5 421.5,-526.5 418.5,-529.5 415.5,-529.5 415.5,-529.5 356.5,-529.5 356.5,-529.5 353.5,-529.5 350.5,-526.5 350.5,-523.5 350.5,-523.5 350.5,-517.5 350.5,-517.5 350.5,-514.5 353.5,-511.5 356.5,-511.5"/>
<text text-anchor="start" x="358.5" y="-518.3" font-family="IBM Plex Sans" font-size="9.00" fill="white">Messages.jsx</text>
</a>
</g>
</g>
<!-- src/pages/UserProfile.jsx&#45;&gt;src/pages/user/Messages.jsx -->
<g id="edge25" class="edge">
<title>src/pages/UserProfile.jsx&#45;&gt;src/pages/user/Messages.jsx</title>
<path fill="none" stroke="white" d="M430.67,-564.18C430.67,-548.85 430.67,-520 430.67,-520 430.67,-520 426.63,-520 426.63,-520"/>
<polygon fill="white" stroke="white" points="421.63,-520 426.63,-517.75 424.13,-520 426.63,-520 426.63,-520 426.63,-520 424.13,-520 426.63,-522.25 421.63,-520 421.63,-520"/>
</g>
<!-- src/pages/HomeFeed.jsx&#45;&gt;src/components/MessageArea.jsx -->
<g id="edge17" class="edge">
<title>src/pages/HomeFeed.jsx&#45;&gt;src/components/MessageArea.jsx</title>
<path fill="none" stroke="white" d="M518.8,-511.4C518.8,-479.54 518.8,-375 518.8,-375 518.8,-375 637.5,-375 637.5,-375 637.5,-375 637.5,-134.52 637.5,-134.52"/>
<polygon fill="white" stroke="white" points="637.5,-129.52 639.75,-134.52 637.5,-132.02 637.5,-134.52 637.5,-134.52 637.5,-134.52 637.5,-132.02 635.25,-134.52 637.5,-129.52 637.5,-129.52"/>
</g>
<!-- src/pages/HomeFeed.jsx&#45;&gt;src/components/MessagesList.jsx -->
<g id="edge18" class="edge">
<title>src/pages/HomeFeed.jsx&#45;&gt;src/components/MessagesList.jsx</title>
<path fill="none" stroke="white" d="M517.1,-511.32C517.1,-486.69 517.1,-421 517.1,-421 517.1,-421 511.54,-421 511.54,-421"/>
<polygon fill="white" stroke="white" points="506.54,-421 511.54,-418.75 509.04,-421 511.54,-421 511.54,-421 511.54,-421 509.04,-421 511.54,-423.25 506.54,-421 506.54,-421"/>
</g>
<!-- src/pages/user/Friends.jsx&#45;&gt;src/components/User.jsx -->
<g id="edge26" class="edge">
<title>src/pages/user/Friends.jsx&#45;&gt;src/components/User.jsx</title>
<path fill="none" stroke="white" d="M466,-511.4C466,-492.97 466,-453 466,-453 466,-453 513.7,-453 513.7,-453 513.7,-453 513.7,-182 513.7,-182 513.7,-182 484.17,-182 484.17,-182"/>
<polygon fill="white" stroke="white" points="479.17,-182 484.17,-179.75 481.67,-182 484.17,-182 484.17,-182 484.17,-182 481.67,-182 484.17,-184.25 479.17,-182 479.17,-182"/>
</g>
<!-- src/pages/user/Messages.jsx&#45;&gt;src/components/MessagesList.jsx -->
<g id="edge27" class="edge">
<title>src/pages/user/Messages.jsx&#45;&gt;src/components/MessagesList.jsx</title>
<path fill="none" stroke="white" d="M386,-511.36C386,-511.36 386,-450.91 386,-450.91"/>
<polygon fill="white" stroke="white" points="386,-445.91 388.25,-450.91 386,-448.41 386,-450.91 386,-450.91 386,-450.91 386,-448.41 383.75,-450.91 386,-445.91 386,-445.91"/>
</g>
</g>
</svg>
