<?xml version="1.0" encoding="UTF-8" standalone="no"?>
<!-- Created with Inkscape (http://www.inkscape.org/) -->

<svg
   width="512"
   height="512"
   viewBox="0 0 512 512"
   version="1.1"
   id="svg5"
   inkscape:version="1.1.2 (0a00cf5339, 2022-02-04, custom)"
   sodipodi:docname="dessin.svg"
   inkscape:export-filename="/home/musikid/Projets/chwitter/client/public/favicon.png"
   inkscape:export-xdpi="96"
   inkscape:export-ydpi="96"
   xmlns:inkscape="http://www.inkscape.org/namespaces/inkscape"
   xmlns:sodipodi="http://sodipodi.sourceforge.net/DTD/sodipodi-0.dtd"
   xmlns="http://www.w3.org/2000/svg"
   xmlns:svg="http://www.w3.org/2000/svg">
  <sodipodi:namedview
     id="namedview7"
     pagecolor="#ffffff"
     bordercolor="#999999"
     borderopacity="1"
     inkscape:pageshadow="0"
     inkscape:pageopacity="0"
     inkscape:pagecheckerboard="0"
     inkscape:document-units="px"
     showgrid="false"
     inkscape:zoom="0.31079042"
     inkscape:cx="230.05857"
     inkscape:cy="751.31016"
     inkscape:window-width="1920"
     inkscape:window-height="1050"
     inkscape:window-x="0"
     inkscape:window-y="0"
     inkscape:window-maximized="1"
     inkscape:current-layer="layer1" />
  <defs
     id="defs2" />
  <g
     inkscape:label="Calque 1"
     inkscape:groupmode="layer"
     id="layer1">
    <g
       id="g12907"
       transform="rotate(-91.223669,257.07822,259.27852)">
      <g
         id="g12112"
         transform="matrix(0.37141008,1.3861213,-1.3861213,0.37141008,431.99398,-136.7445)">
        <path
           style="fill:none;stroke:#000000;stroke-width:3;stroke-linecap:butt;stroke-linejoin:miter;stroke-miterlimit:4;stroke-dasharray:none;stroke-opacity:1"
           d="m 288.60335,123.14117 -9.66012,70.58266 c 95.21188,-5.97659 121.14402,2.08553 127.58844,-7.99075 -25.35362,-47.83922 -65.87397,-64.46826 -117.92832,-62.59191 z"
           id="path42"
           sodipodi:nodetypes="cccc" />
        <path
           style="fill:none;stroke:#000000;stroke-width:3;stroke-linecap:butt;stroke-linejoin:miter;stroke-miterlimit:4;stroke-dasharray:none;stroke-opacity:1"
           d="m 284.52082,228.21555 -5.57759,-34.49172 c 95.65724,14.83124 122.28227,14.30287 128.18631,19.86601 -28.38799,19.35237 -70.22882,22.07845 -122.60872,14.62571 z"
           id="path42-3"
           sodipodi:nodetypes="cccc"
           inkscape:transform-center-x="-57.499089"
           inkscape:transform-center-y="12.499819" />
        <g
           id="g2848"
           transform="rotate(-18.006313,300.9894,38.6485)">
          <circle
             style="fill:#414141;fill-opacity:0;stroke:#000000;stroke-width:3;stroke-miterlimit:4;stroke-dasharray:none;stroke-opacity:1"
             id="path279"
             cx="226.75089"
             cy="113.97386"
             r="34.506859" />
          <circle
             style="fill:#414141;fill-opacity:0;stroke:#000000;stroke-width:3;stroke-miterlimit:4;stroke-dasharray:none;stroke-opacity:1"
             id="path2733"
             cx="218.78027"
             cy="106.73516"
             r="2.7713366" />
        </g>
        <g
           id="g2844"
           transform="rotate(-18.006313,300.9894,38.6485)">
          <circle
             style="fill:#414141;fill-opacity:0;stroke:#000000;stroke-width:3;stroke-miterlimit:4;stroke-dasharray:none;stroke-opacity:1"
             id="path279-6"
             cx="-293.3082"
             cy="-92.628372"
             r="34.506859"
             transform="scale(-1)" />
          <circle
             style="fill:#414141;fill-opacity:0;stroke:#000000;stroke-width:3;stroke-miterlimit:4;stroke-dasharray:none;stroke-opacity:1"
             id="path2733-7"
             cx="-301.27881"
             cy="-99.867073"
             r="2.7713366"
             transform="scale(-1)" />
        </g>
        <path
           style="fill:#000000;fill-opacity:1;stroke:#000000;stroke-width:1;stroke-linejoin:round;stroke-miterlimit:4;stroke-dasharray:none;stroke-opacity:1"
           id="path3021"
           d="m 273.33457,91.63915 c -1.47301,-1.675007 -3.07305,-3.233877 -4.60957,-4.850815 -1.87891,-1.616632 -3.66072,-3.353498 -5.63673,-4.849894 -5.72804,-4.337756 -12.46574,-8.224485 -19.64547,-9.481698 -5.37585,-0.941343 -6.66837,-0.24626 -11.80775,0.709805 -6.6832,2.736694 -12.91445,6.181024 -14.26451,13.86788 -0.5366,3.055223 -0.0398,4.347785 0.49722,7.292172 0.83717,2.447871 1.59357,5.255012 3.50949,7.14834 0.59369,0.58668 1.71086,1.29005 2.63378,0.81878 1.5176,-0.77491 2.84457,-1.87692 4.26686,-2.815376 0.27143,-0.685405 0.63989,-1.339949 0.81429,-2.056216 1.18543,-4.86846 0.0948,-10.952833 -1.41521,-15.596658 -0.58024,-1.784469 -1.32777,-3.510138 -1.99166,-5.265207 -3.16823,-6.755994 -6.16269,-13.96502 -11.51559,-19.361757 -3.48155,-3.510066 -4.61972,-3.738819 -8.89547,-6.095262 -1.77071,-0.512968 -3.49383,-1.235048 -5.31213,-1.538905 -5.56305,-0.929644 -11.35076,0.100476 -16.45843,2.382816 -4.363,1.949592 -7.4539,4.58544 -11.36731,7.41908 -1.19385,1.347373 -2.49168,2.609339 -3.58156,4.042117 -3.06281,4.026434 -5.27477,8.764773 -6.27001,13.731841 -0.76048,3.795394 -0.52748,5.090852 -0.43472,8.859774 0.21802,1.269046 0.33132,2.560602 0.65406,3.807139 0.98153,3.791109 3.04575,7.269804 6.16136,9.669889 0.53599,0.412898 1.13629,0.734795 1.70443,1.102195 0.5101,0.22013 1.00103,0.49145 1.53029,0.66038 2.38607,0.76159 4.12754,-0.44954 6.06396,-2.070066 0.28424,-0.237874 0.30163,-0.695164 0.31819,-1.06544 0.0193,-0.430984 -0.14231,-0.851012 -0.21346,-1.276518 -0.29901,-0.458306 -0.52622,-0.972473 -0.89701,-1.374918 -2.65222,-2.878654 -7.12248,-2.976551 -10.70101,-2.425326 -1.46689,0.225955 -2.89372,0.661549 -4.34058,0.992324 -1.69152,0.706877 -3.44335,1.283946 -5.07457,2.120631 -6.5415,3.35525 -12.54129,7.483453 -17.37209,13.081623 -3.9997,4.63506 -5.19201,7.20517 -8.29387,12.46822 -4.30955,8.42749 -7.24188,17.58591 -7.29796,27.1263 -0.032,5.4379 0.49543,6.75947 1.53082,11.97563 0.65195,1.75723 1.17949,3.56576 1.95585,5.27168 2.12491,4.66915 5.26706,8.99055 9.21589,12.28496 3.06626,2.5581 4.6763,3.17197 8.16256,5.00334 6.70871,2.8877 13.87196,4.4468 21.08774,5.37915 2.87044,0.30538 4.34969,0.80219 6.38568,-2.33309 0.21193,-0.32635 -0.71109,-0.32328 -1.08529,-0.43 -0.5602,-0.15976 -1.13912,-0.24454 -1.70868,-0.36681 -5.82903,-0.81968 -11.82791,0.19971 -17.0581,2.94911 -2.36516,1.24331 -4.60643,2.70925 -6.90964,4.06388 -1.33221,1.15052 -2.75342,2.2054 -3.99664,3.45155 -5.5842,5.59742 -9.6284,12.7736 -12.74822,19.97525 -0.79865,1.84359 -1.45289,3.74643 -2.17934,5.61965 -0.55379,1.84711 -1.19991,3.66902 -1.66137,5.54133 -1.60112,6.49633 -2.28953,13.58046 -0.71594,20.15687 0.31729,1.32602 0.851,2.59071 1.27649,3.88607 0.62994,1.14156 1.17224,2.33608 1.88983,3.42468 2.20904,3.35117 5.37844,6.381 8.81636,8.45967 0.47553,0.28752 0.9894,0.50623 1.48411,0.75934 0.30148,0.0709 0.62102,0.33739 0.90446,0.21259 1.29745,-0.57126 2.67092,-1.1696 3.6333,-2.21052 0.2646,-0.2862 -0.56302,-0.55355 -0.90516,-0.74026 -0.51485,-0.28096 -1.07835,-0.46619 -1.6364,-0.64671 -1.62357,-0.52519 -4.91391,-1.30048 -6.37958,-1.66325 -11.4842,-2.82338 -22.41877,-7.40727 -33.597201,-11.18748 -2.641345,-0.89322 -5.308523,-1.70815 -7.962784,-2.56222 -2.668393,-0.65533 -5.303674,-1.46434 -8.005179,-1.96598 -7.584392,-1.40835 -15.458079,-1.73642 -23.013496,0.0417 -6.094621,1.43429 -6.942154,2.34138 -12.300481,5.24657 -2.458847,1.84378 -5.106614,3.45941 -7.37654,5.53133 -3.647159,3.32902 -6.842259,9.36986 -7.88425,14.19281 -0.852838,3.94744 -0.428287,4.86301 0.0388,8.72199 0.505964,1.30061 0.872657,2.66439 1.517892,3.90184 2.070496,3.97084 5.384661,7.01363 9.206989,9.25448 3.388954,1.98678 5.622269,2.66131 9.298672,4.06786 8.536123,2.79434 17.557434,4.61307 26.580091,3.79191 1.52939,-0.13919 3.036571,-0.46138 4.554857,-0.69206 4.882865,-1.09183 8.968715,-3.37457 13.066001,-6.23426 0.919513,-0.64178 2.253024,-2.0615 2.883909,-3.09559 0.17048,-0.27945 0.23495,-0.61108 0.35242,-0.91661 -0.29009,-0.49693 -0.29854,-0.85802 -1.11196,-0.3962 -1.476847,0.83846 -2.935659,1.73061 -4.262794,2.79024 -0.948977,0.75769 -1.625072,3.44445 -1.894335,4.54048 -0.25349,3.02426 0.272392,5.76339 2.690613,7.84451 1.690876,1.45517 2.9998,1.79795 5.052606,2.6584 4.61885,1.31621 9.29394,1.83534 13.87233,-0.0349 3.31145,-1.35268 6.58645,-4.20772 9.2789,-6.20655 2.87595,-2.90604 5.05567,-6.35687 7.26335,-9.76675 0.97444,-1.50508 2.15128,-3.50011 3.40676,-4.84634 0.48443,-0.51944 1.08043,-0.9223 1.62064,-1.38345 -0.49804,0.40568 -1.50576,0.57479 -1.49414,1.21705 0.009,0.50921 1.041,-0.0122 1.51913,0.1632 0.59906,0.21978 1.13286,0.60161 1.63584,0.99429 2.13474,1.6666 4.0643,4.25904 5.82961,6.30053 3.22729,3.65641 6.55866,7.35276 10.7313,9.96588 2.84991,1.78476 3.57432,1.86741 6.70768,3.0203 1.20306,0.2272 2.38867,0.58514 3.60919,0.6816 2.33562,0.18457 5.2888,-0.13303 7.51003,-0.9059 3.07466,-1.06983 7.54982,-4.15985 9.67238,-5.89512 1.11202,-0.90912 1.93864,-2.11992 2.90796,-3.17987 5.4026,-6.82154 7.73069,-15.27934 10.16626,-23.47581 0.77152,-1.96799 1.01977,-4.37243 2.38694,-6.08672 0.25434,-0.31892 1.26007,-1.0366 0.9474,-0.77461 -2.50334,2.09763 -3.00118,1.40914 -0.76227,2.35175 3.15468,2.06386 5.58223,5.00768 8.25746,7.62024 2.53694,2.4775 3.14635,2.95908 5.82291,5.33175 4.9395,4.2597 10.68889,7.86528 17.26318,8.83516 1.11553,0.16457 2.25099,0.13786 3.37648,0.20678 1.04685,-0.11596 2.11147,-0.12354 3.14056,-0.34789 3.69121,-0.8047 7.98194,-3.29384 10.02173,-6.52669 1.31701,-2.08732 1.38864,-3.23368 1.95701,-5.58878 0.78107,-4.89356 -0.39742,-9.70023 -1.20713,-14.49496 -9.3e-4,-0.28941 -0.10042,-0.59578 -0.003,-0.86824 0.0404,-0.11269 0.4414,-0.16607 0.34701,-0.0924 -0.91205,0.71137 -2.13218,1.09188 -2.82034,2.02157 -0.21117,0.28528 0.59035,0.39455 0.87694,0.60394 2.67573,1.95499 -0.55575,-0.28921 2.54594,1.83025 2.13177,1.20836 5.80208,3.16361 8.29973,1.98566 1.51942,-0.7166 2.92428,-1.65446 4.38643,-2.48169 1.75162,-1.75853 2.87261,-4.0015 2.86995,-6.52895 -0.002,-1.74158 -0.34213,-2.35194 -0.86996,-4.00099 -0.83765,-1.83877 -1.90226,-3.62325 -3.36509,-5.04235 -0.0138,-0.0134 -1.1729,-1.14824 -1.63674,-0.83273 -1.12155,0.7629 -2.0765,1.74576 -3.11475,2.61864 0.18809,0.37345 0.32956,0.7743 0.56427,1.12036 2.07859,3.06462 5.16858,3.77445 8.54282,4.58773 4.05845,0.79893 8.17313,1.32928 12.19071,2.33176 2.56948,0.64115 4.54839,1.30406 7.07919,2.09785 5.75731,1.81716 11.59749,3.93185 17.71571,4.01005 1.07937,0.0138 2.15477,-0.1336 3.23215,-0.2004 4.34599,-0.91159 9.86742,-4.32236 11.29569,-8.33917 0.99047,-3.27128 0.42784,-3.98299 -0.13474,-7.45006 -2.83248,-6.65901 -1.51512,-9.56097 -3.43159,-17.72645 -0.49795,10.40954 0.77731,10.95765 0.59056,19.22769 0.45981,3.34248 1.00346,4.17727 -0.0206,7.30729 -4.15012,3.19626 -0.51404,5.31182 -9.02568,5.38989 -6.12451,0.0213 -11.99484,-2.08494 -17.74998,-3.90278 -2.11512,-0.6559 -4.93845,-1.55964 -7.09275,-2.11803 -3.96043,-1.02653 -8.01751,-1.58579 -12.0131,-2.4465 -3.01009,-0.76485 -6.36364,-1.64623 -8.09988,-4.50688 -0.18883,-0.31112 -0.27119,-0.67546 -0.40678,-1.01319 -1.01711,0.39545 -2.03821,0.78079 -3.05133,1.18636 -0.18703,0.0749 0.37818,-0.24745 0.57242,-0.19399 0.39316,0.1082 0.7353,0.37152 1.04338,0.63868 1.50489,1.30498 2.54332,3.09301 3.38682,4.86318 0.20226,0.65285 0.47168,1.28857 0.60679,1.95855 0.6325,3.1363 -0.55117,6.11541 -2.89841,8.20147 0.5293,-0.28643 1.47893,-0.2674 1.58789,-0.85928 0.0944,-0.51295 -0.9875,0.37553 -1.50712,0.4205 -2.17169,0.18793 -4.74371,-1.15763 -6.54473,-2.21452 -1.62751,-1.16518 -1.02373,-0.68226 -2.44169,-1.877 -0.28012,-0.23603 -0.47485,-0.77365 -0.83611,-0.7131 -1.35938,0.22784 -2.60453,0.9166 -3.85372,1.49913 -0.11228,0.0524 -0.11867,0.22879 -0.11729,0.35266 0.003,0.28697 0.0871,0.56733 0.13069,0.85099 1.10129,4.6837 2.14631,9.43218 1.31647,14.26432 -0.61827,2.31784 -0.71035,3.43995 -2.07133,5.46892 -0.52841,0.78776 -1.38495,1.32814 -1.87624,2.13957 -0.10487,0.1732 0.79146,-0.1228 0.60599,-0.0416 -2.76332,1.21012 -2.82002,0.99064 -5.8462,1.36912 -1.11772,-0.0504 -2.24402,-0.004 -3.35314,-0.15121 -6.55741,-0.87007 -12.2965,-4.41342 -17.20117,-8.66356 -2.7527,-2.45755 -3.17185,-2.76226 -5.75894,-5.34255 -2.16889,-2.1632 -4.1451,-4.5581 -6.45599,-6.57657 -0.52863,-0.46174 -1.11019,-0.85913 -1.66528,-1.28869 -0.49204,-0.24498 -0.93695,-0.84186 -1.4761,-0.73494 -1.14441,0.22695 -4.18764,1.19447 -5.21176,2.75539 -1.16312,1.77277 -1.28574,4.03118 -1.97865,5.97689 -2.19868,8.22716 -4.64066,16.57435 -10.12569,23.29116 -1.00521,1.05596 -2.06593,2.06173 -3.01562,3.16789 -0.21579,0.25134 -0.18439,0.69748 -0.46034,0.88077 -3.12619,2.07637 -7.00644,2.91095 -10.72223,2.6279 -1.19719,-0.0912 -2.36147,-0.43559 -3.54221,-0.65338 -3.10242,-1.13092 -3.79635,-1.20622 -6.62934,-2.95186 -4.16983,-2.56937 -7.51624,-6.21502 -10.69479,-9.88247 -0.36524,-0.43324 -3.52561,-4.19677 -4.01105,-4.71774 -0.94239,-1.01136 -3.51292,-3.67277 -5.25363,-3.09166 -1.65006,0.55086 -3.09917,1.58106 -4.64876,2.37159 -0.48405,0.46141 -1.01693,0.8765 -1.45215,1.38421 -1.18005,1.37658 -2.26311,3.28885 -3.21277,4.78786 -2.16254,3.4135 -4.37014,6.81391 -7.26494,9.67149 -0.87806,2.14624 -0.36735,1.58288 -3.82601,3.05824 -4.48539,1.91332 -9.08911,1.47845 -13.63591,0.14123 -2.00131,-0.85841 -3.20812,-1.17414 -4.8467,-2.60236 -2.354517,-2.05225 -2.762735,-4.68185 -2.364707,-7.62063 0.459839,-1.55678 0.433535,-1.86974 1.294062,-3.23922 0.270572,-0.43061 1.436146,-1.21751 0.927632,-1.21126 -0.951081,0.0117 -1.67602,0.91803 -2.574033,1.2315 -0.249341,0.087 0.476101,-0.75153 0.660963,-0.43686 -0.751407,2.1539 -1.565416,1.92468 -2.942392,3.62945 -0.08568,0.10607 0.526809,-0.0319 0.407634,0.0343 -3.219059,1.78991 -3.747289,1.7248 -7.370201,2.81344 -1.512159,0.24263 -3.012518,0.57608 -4.536475,0.72789 -9.005716,0.89715 -18.0639,-0.80769 -26.591516,-3.6142 -3.572827,-1.3873 -5.867399,-2.09528 -9.146903,-4.06814 -3.698705,-2.22504 -6.953558,-5.28946 -8.955281,-9.15994 -0.627511,-1.21334 -0.983337,-2.5489 -1.475006,-3.82335 -0.485119,-3.77308 -0.904063,-4.6487 -0.102878,-8.51779 0.695651,-3.35945 2.114667,-6.55489 4.024009,-9.39662 0.947803,-1.41064 4.278888,-5.24598 5.754463,-6.96636 5.378999,-2.98941 6.246502,-3.92804 12.379344,-5.43438 7.561813,-1.85732 15.459344,-1.60369 23.073576,-0.21818 2.701626,0.49159 5.337136,1.2949 8.005703,1.94236 2.646845,0.85559 5.309526,1.66366 7.940534,2.56678 11.013732,3.78057 21.719352,8.46237 32.926262,11.67776 1.47382,0.40813 4.50142,1.20107 6.10503,1.78664 0.50289,0.18363 0.97882,0.43415 1.46426,0.6599 0.17512,0.0814 0.33617,0.32926 0.51701,0.26148 1.16145,-0.43535 2.31339,-0.96062 3.31177,-1.69664 0.24185,-0.1783 -0.59838,-0.0554 -0.89757,-0.0832 -0.50682,-0.22511 -1.03363,-0.40971 -1.52044,-0.67533 -3.50171,-1.91063 -6.69762,-4.87997 -8.89773,-8.19799 -0.7084,-1.06836 -1.24046,-2.24368 -1.86069,-3.36553 -1.21923,-3.60101 -1.65542,-4.24922 -2.05014,-8.1568 -0.7221,-7.14861 0.70109,-14.2907 2.932,-21.05155 0.72203,-1.86223 1.37441,-3.75298 2.1661,-5.58668 3.10238,-7.18576 7.14925,-14.33047 12.78982,-19.84689 1.26862,-1.24071 2.71673,-2.28351 4.0751,-3.42526 0.43594,-0.28932 0.83761,-0.63851 1.30783,-0.86796 5.34774,-2.60945 10.66183,-3.89116 16.57948,-2.86775 0.52469,0.13107 1.05554,0.23957 1.57407,0.39321 0.29679,0.0879 0.57703,0.43621 0.86788,0.3303 1.24833,-0.45456 2.33179,-1.27382 3.49344,-1.91842 0.16094,-0.0893 -0.30868,0.22785 -0.49108,0.25241 -0.41918,0.0564 -0.84618,0.002 -1.26879,-0.0155 -0.59369,-0.0243 -1.18614,-0.0728 -1.77922,-0.10915 -7.31717,-0.68712 -14.58697,-2.11246 -21.36848,-5.03512 -3.5089,-1.81779 -5.03075,-2.377 -8.12798,-4.91646 -3.94506,-3.23461 -7.13666,-7.46622 -9.29325,-12.08156 -0.78586,-1.68183 -1.31898,-3.47057 -1.97847,-5.20586 -1.07606,-5.11633 -1.62583,-6.48344 -1.65133,-11.82698 -0.0451,-9.45067 2.81415,-18.52474 7.06287,-26.88013 3.1712,-5.39116 4.16889,-7.65717 8.27945,-12.39439 3.42334,-3.94524 8.42306,-8.305186 13.18508,-10.615425 1.61638,-0.784172 3.31147,-1.394522 4.9672,-2.091783 1.43245,-0.337046 2.84434,-0.778159 4.29734,-1.011138 3.37693,-0.541468 7.86139,-0.556504 10.2906,2.332471 0.32387,0.385173 0.4889,0.879764 0.73335,1.319646 0.0231,0.395408 0.13517,0.795658 0.0693,1.186223 -0.1219,0.722726 -1.99391,2.846836 1.50393,0.0068 0.28426,-0.230803 -0.70948,0.218978 -1.07562,0.222957 -1.14246,0.01242 -1.74626,-0.381853 -2.79218,-0.819068 -0.55422,-0.356688 -1.14002,-0.66852 -1.66266,-1.070064 -3.07432,-2.362013 -5.13216,-5.703284 -6.14158,-9.433934 -0.33062,-1.221891 -0.46437,-2.488706 -0.69656,-3.733059 -0.13429,-3.787842 -0.38274,-4.899373 0.371,-8.725954 0.96502,-4.899227 3.125,-9.574053 6.15514,-13.537238 1.08089,-1.41371 2.37112,-2.654308 3.55668,-3.981462 0.63975,-0.678166 1.15853,-1.495521 1.91925,-2.034499 6.02381,-4.267931 13.94569,-6.472554 21.29582,-5.329781 1.81565,0.282291 3.54131,0.981927 5.31196,1.47289 4.34699,2.320276 5.37838,2.475922 8.94726,5.956121 5.43078,5.295819 8.63532,12.400633 11.45484,19.299624 0.59908,1.780802 1.28832,3.533773 1.79725,5.342405 1.30593,4.641052 2.27757,11.02547 0.66657,15.747226 -0.24557,0.719751 -0.71192,1.344082 -1.06789,2.016112 0.6472,-0.23483 1.35915,-0.33739 1.9416,-0.7045 0.35112,-0.221314 -0.81057,0.31847 -1.21987,0.24961 -0.49446,-0.0832 -0.95963,-0.35558 -1.34147,-0.680553 -2.0122,-1.712512 -2.8079,-4.509987 -3.68685,-6.862819 -0.22292,-1.137536 -0.57621,-2.257137 -0.66874,-3.41261 -0.20659,-2.580037 0.10251,-5.033707 1.25354,-7.389711 0.61008,-1.248736 1.54964,-2.307761 2.34702,-3.446054 0.38615,-0.551244 0.63793,-1.255945 1.20295,-1.62165 1.47961,-0.957681 3.18897,-1.502034 4.78345,-2.253051 5.18406,-1.066417 6.52768,-1.798487 11.98781,-0.975985 7.269,1.094986 14.139,4.81898 19.93,9.188387 1.9702,1.486553 3.72612,3.237611 5.58918,4.856416 1.50741,1.627875 3.08827,3.190682 4.52221,4.883626 3.72264,4.395051 6.91918,12.924354 8.95846,18.317374 l -5.88317,-16.897564 c 0,0 0.26831,-0.453138 -1.38447,-2.428056 z"
           sodipodi:nodetypes="ccsscscsscsscscsscsscsscssscsscsscscssccsscscsscsscsscsssscscsscsscsscscsscsscscscssccsscscsssccsscscscssccccsscscccsscscscsccccccccscscssscscsscssscccssccccsscssccscscscsscsscscscssscsccscsscsscsscscsssscsscscsscscsssscccsscscsscsscssscsscsscsscscsscssscsssscsscsccc" />
        <path
           style="fill:#00adef;fill-opacity:1;stroke:none;stroke-width:0.272892"
           d="m 193.0501,50.246858 c -7.29937,0.225113 -14.76675,3.077344 -19.62443,8.676246 -6.39361,6.607792 -10.24838,15.923757 -9.30324,25.176812 0.34697,3.18707 0.9555,6.62459 2.93093,9.196795 3.27543,0.207388 7.2968,-0.299507 9.66743,2.564229 1.10402,0.967281 1.48821,2.944158 -0.0794,3.693111 -1.95954,1.803409 -4.94104,1.602399 -6.92818,-0.0299 -2.04795,-1.177353 -3.2834,-3.234223 -4.89734,-4.85125 -1.9315,-0.982847 -4.10775,0.356638 -6.00417,0.850657 -12.60672,4.834432 -21.60549,16.034602 -27.07765,28.022642 -3.78026,7.97703 -5.90428,16.77905 -5.53494,25.63376 0.0781,7.00106 2.22595,13.99864 5.95629,19.91474 3.6638,5.62786 8.92421,10.20873 15.13903,12.80907 4.58015,2.01971 9.46065,3.62737 14.47005,4.03567 3.31238,0.0983 6.71659,-0.25588 9.94832,0.64439 -0.75369,1.32427 -2.28372,1.88175 -3.79116,1.63164 -3.2909,0.12848 -6.48039,-1.08015 -9.749,-0.95048 -5.72362,0.98195 -10.9612,3.98996 -14.83533,8.29711 -7.82913,8.38179 -12.79056,19.11332 -15.7121,30.11571 -2.28243,9.08537 -2.59842,19.51857 2.75832,27.628 2.5213,3.68501 5.99277,6.99519 10.4194,8.13423 1.68508,0.36522 -0.207,1.14722 -0.8869,1.54942 -0.89881,0.6186 -1.81779,0.68668 -2.69375,-0.0373 -4.03269,-2.53758 -8.911,-3.06754 -13.27735,-4.77955 -14.07083,-4.66701 -27.649347,-11.02768 -42.237611,-14.02232 -7.063952,-1.21309 -14.402115,-1.53132 -21.465764,-0.16256 -5.290211,1.0305 -10.448128,3.1341 -14.707411,6.46147 -4.700903,4.96758 -9.036319,10.854 -9.850199,17.84836 -0.713913,6.12834 1.711622,12.60653 6.434246,16.62191 5.518817,5.45128 13.226071,7.69469 20.523432,9.64877 9.870473,2.47792 20.688544,3.0836 30.28147,-0.80056 2.163429,-0.70465 1.655478,-3.62638 3.631814,-4.57947 1.091775,-0.7099 2.517753,-1.87101 3.585443,-2.03337 -0.798245,2.02679 -3.114556,3.02375 -3.916963,4.97283 0.01138,2.84639 0.187941,6.09913 2.620193,8.02794 3.63712,3.00629 8.59337,4.02715 13.2161,3.9676 3.20219,-0.27977 6.55124,-1.12616 9.15362,-3.06684 2.40956,-3.47243 5.18637,-6.71712 7.4432,-10.31596 1.68989,-2.22135 2.9219,-4.91587 5.06654,-6.73097 1.6563,-0.94285 3.34463,-2.18358 5.24533,-2.44996 2.98603,1.07472 4.7219,4.06257 6.83209,6.2604 5.35808,6.21511 11.44378,12.85548 19.84421,14.56524 4.69103,0.99033 9.85448,0.4105 13.81732,-2.43418 2.1875,-2.9952 5.05443,-5.52469 6.76746,-8.91968 4.16244,-7.29341 5.85331,-15.61768 8.39512,-23.52201 1.05887,-1.902 3.3773,-3.11482 5.47864,-3.15692 4.53875,3.22246 8.08271,7.63116 12.21959,11.33261 5.59556,5.27308 12.26009,10.31152 20.16333,11.04656 2.98821,-0.02 6.60967,0.70516 9.01519,-1.54074 4.61639,-4.47003 4.61332,-11.56673 3.52824,-17.45634 -0.22626,-1.80433 -0.98489,-3.56396 -0.92457,-5.3547 1.09233,-0.36439 2.30071,-1.59493 3.48364,-1.03028 2.6917,2.30715 6.00986,4.50375 9.67702,4.45103 2.11584,-0.75286 2.91393,-3.33848 3.30136,-5.35125 0.25019,-2.29472 0.0394,-5.39612 -2.51093,-6.3133 -1.24142,-0.859 -2.67973,-1.89468 -3.19103,-3.34507 0.94832,-0.6478 1.80082,-1.88592 2.96291,-2.02111 2.5406,1.57588 3.1183,5.42609 6.417,5.9251 7.34485,1.67743 14.70694,2.93037 21.86699,5.38847 6.25506,2.04587 12.75806,3.99899 19.42209,3.31176 2.24914,0.12681 4.12125,-1.37333 4.97975,-3.37118 0.90278,-1.36788 2.37394,-2.48205 2.32439,-4.29859 0.0891,-4.68817 -0.73471,-9.3039 -0.85653,-13.98201 -0.25854,-3.1779 -0.23117,-6.34445 -0.39335,-9.49134 -0.69293,-1.36818 -2.6607,-0.47258 -3.91906,-0.88592 -7.85937,-0.75758 -15.70591,-1.61138 -23.53114,-2.73543 -1.98246,-11.80006 -3.79339,-23.68363 -5.8544,-35.48349 0.11589,-1.06499 0.67107,-2.14648 0.68246,-3.30104 1.652,-11.86084 3.29592,-23.77938 4.8563,-35.61294 -0.55994,-1.9008 -2.30192,-0.13563 -2.85141,0.89132 -6.91861,8.39698 -17.70803,13.61584 -28.6215,13.01428 -12.44822,-0.38996 -24.39383,-7.92951 -29.91419,-19.19177 -5.19054,-10.0687 -4.89157,-22.9361 0.79708,-32.86105 5.59428,-10.29239 16.99083,-17.315912 28.78827,-17.77251 8.57641,-0.520856 17.04352,2.58185 23.76858,7.70373 0.97258,0.90279 2.55953,-0.25395 1.80951,-1.43481 -1.16439,-3.52163 -1.70755,-7.375485 -4.14721,-10.322478 -6.20396,-8.087049 -14.36528,-14.872596 -23.81627,-18.809328 -7.49607,-3.164309 -16.39742,-3.409013 -23.72086,0.360837 -1.3329,1.222301 0.41017,2.995545 0.63,4.384402 1.88209,5.59599 3.33996,11.583734 1.90066,17.435801 -0.79906,2.104917 -3.00561,3.340656 -4.94192,4.219176 -2.40159,-0.37231 -3.39092,-3.135602 -4.26021,-5.085823 -2.01068,-5.094785 -2.21698,-11.333936 1.32929,-15.820299 0.78962,-1.534595 2.99072,-2.159355 3.30994,-3.84413 C 220.3822,68.43896 215.86004,59.319431 207.60614,54.25923 203.26646,51.564324 198.16186,50.132317 193.0501,50.246858 Z M 179.85053,299.29215 c -0.0221,0.0644 0.0373,-0.15899 0,0 z"
           id="path11168" />
        <path
           style="fill:#00adef;fill-opacity:1;stroke:none;stroke-width:1.39505;stroke-linejoin:round;stroke-miterlimit:4;stroke-dasharray:none;stroke-opacity:1;paint-order:markers stroke fill"
           d="m 223.44514,78.763138 c -2.57199,1.582297 -3.35622,5.190322 -3.66417,8.054458 -0.22778,4.767175 0.95735,10.311948 4.82308,13.401714 2.67341,-0.03 2.3209,-3.827473 2.54266,-5.709841 0.12917,-5.207586 -0.61864,-10.581032 -2.70251,-15.356698 -0.24395,-0.280427 -0.62831,-0.435106 -0.99906,-0.389633 z"
           id="path11897" />
      </g>
      <path
         style="fill:#ffffff;fill-opacity:1;stroke:none;stroke-width:2.39667;stroke-linejoin:round;stroke-miterlimit:4;stroke-dasharray:none;stroke-opacity:1;paint-order:markers stroke fill"
         d="m 366.38998,310.1575 c -10.19536,2.95284 -20.50337,5.51041 -31.16307,4.90055 -21.78823,2.30224 -43.6898,4.42696 -65.26752,8.10831 -1.24164,3.06254 1.74966,6.59383 2.07903,9.76691 15.72435,46.6417 27.83472,94.36248 41.48491,141.62036 2.32341,6.41775 4.03711,14.20993 9.71846,18.52881 4.68405,0.9362 7.30463,-4.76925 10.41604,-7.26353 24.11897,-24.96414 40.99196,-57.5473 43.93703,-92.40872 0.85512,-12.23509 1.6945,-24.82932 -0.9278,-36.89239 -4.65015,-9.36884 -8.28151,-19.5637 -7.86348,-30.19096 0.0807,-5.36457 1.02688,-11.34467 -1.79019,-16.13192 z"
         id="path12456" />
      <path
         style="fill:#ffffff;fill-opacity:1;stroke:none;stroke-width:2.39667;stroke-linejoin:round;stroke-miterlimit:4;stroke-dasharray:none;stroke-opacity:1;paint-order:markers stroke fill"
         d="m 264.93882,324.56302 c -14.09116,5.66431 -28.00708,11.93733 -41.67714,18.58963 -0.59284,6.71427 1.66217,13.93464 2.34038,20.82556 6.99595,42.54419 17.60114,86.28245 43.60532,121.56934 5.0321,6.26029 9.98801,13.09967 16.38144,17.91868 3.21352,-0.82847 1.43917,-5.60403 1.72801,-8.02351 -4.00436,-39.88714 -10.5414,-79.4716 -15.0472,-119.30374 -2.13382,-16.96719 -3.86348,-33.9984 -6.35485,-50.9134 -0.46757,0.22383 -0.5712,-0.69005 -0.97596,-0.66256 z"
         id="path12495" />
      <path
         style="fill:#ffffff;fill-opacity:1;stroke:none;stroke-width:2.39667;stroke-linejoin:round;stroke-miterlimit:4;stroke-dasharray:none;stroke-opacity:1;paint-order:markers stroke fill"
         d="m 365.26658,222.77446 c -18.80702,-11.77271 -45.4215,-7.10467 -59.72116,9.6331 -8.8907,10.7731 -14.10945,25.03099 -11.51911,39.02826 2.46186,15.69351 12.50871,30.64978 27.66049,36.51522 8.58723,5.50447 18.93275,3.16366 28.37187,2.2035 7.07933,-0.41522 14.17191,-2.139 19.60831,-6.95868 17.28367,-11.76875 24.47811,-35.47314 17.12696,-54.96985 -3.77915,-10.75208 -11.29131,-20.23458 -21.52736,-25.45155 z m -18.19045,22.19161 c 5.03607,3.27985 -0.44997,12.14003 -5.60107,8.58726 -4.36315,-2.43551 -2.52756,-9.85112 2.58504,-9.46734 1.06157,-0.007 2.12969,0.29114 3.01603,0.88008 z"
         id="path12534" />
      <path
         style="fill:#ffffff;fill-opacity:1;stroke:none;stroke-width:2.39667;stroke-linejoin:round;stroke-miterlimit:4;stroke-dasharray:none;stroke-opacity:1;paint-order:markers stroke fill"
         d="m 442.81498,286.03802 c -19.3813,-11.64043 -46.90692,-6.9863 -60.63464,11.23714 -5.4292,7.31222 -11.51828,16.24012 -8.52606,25.81469 2.86591,10.59266 4.06844,21.56621 6.73583,32.17222 5.2855,10.86437 17.43301,16.17218 28.41111,19.4949 13.44922,2.83751 28.26124,0.39089 39.01357,-8.55149 21.7813,-14.52665 25.79731,-48.01823 9.35168,-67.99634 -3.76089,-5.11573 -8.72855,-9.24165 -14.35149,-12.17112 z m -23.70264,52.36967 c 5.02634,2.57659 2.03227,11.09761 -3.52862,9.48831 -6.07469,-0.86813 -4.1713,-10.69054 1.65941,-10.00176 0.65027,0.029 1.30066,0.19193 1.86921,0.51345 z"
         id="path12573" />
      <path
         style="fill:#ffffff;fill-opacity:1;stroke:none;stroke-width:0.566789;stroke-linejoin:round;stroke-miterlimit:4;stroke-dasharray:none;stroke-opacity:1;paint-order:markers stroke fill"
         d="m 345.32277,246.69442 c -1.78798,-1.04684 -4.35369,0.50726 -4.02167,2.61815 0.0309,2.03545 2.57476,3.34218 4.23189,2.12032 1.69757,-1.08257 1.6712,-3.83739 -0.21022,-4.73847 z"
         id="path12612" />
    </g>
  </g>
</svg>
