<svg width="512" height="512" xmlns="http://www.w3.org/2000/svg"><path style="fill:none;stroke:#000;stroke-width:3;stroke-linecap:butt;stroke-linejoin:miter;stroke-miterlimit:4;stroke-dasharray:none;stroke-opacity:1" d="m288.603 123.141-9.66 70.583c95.212-5.977 121.144 2.085 127.589-7.99-25.354-47.84-65.874-64.47-117.929-62.593zM284.52 228.216l-5.577-34.492c95.657 14.831 122.283 14.303 128.187 19.866-28.388 19.352-70.23 22.078-122.61 14.626z" transform="rotate(-16.224 254.454 546.635) scale(1.43502)"/><g transform="rotate(-34.23 311.027 274.75) scale(1.43502)" fill="none"><circle style="fill:#414141;fill-opacity:0;stroke:#000;stroke-width:3;stroke-miterlimit:4;stroke-dasharray:none;stroke-opacity:1" cx="226.751" cy="113.974" r="34.507"/><circle style="fill:#414141;fill-opacity:0;stroke:#000;stroke-width:3;stroke-miterlimit:4;stroke-dasharray:none;stroke-opacity:1" cx="218.78" cy="106.735" r="2.771"/></g><g transform="rotate(145.77 -84.603 95.774) scale(1.43502)" fill="none"><circle style="fill:#414141;fill-opacity:0;stroke:#000;stroke-width:3;stroke-miterlimit:4;stroke-dasharray:none;stroke-opacity:1" cx="-293.308" cy="-92.628" r="34.507"/><circle style="fill:#414141;fill-opacity:0;stroke:#000;stroke-width:3;stroke-miterlimit:4;stroke-dasharray:none;stroke-opacity:1" cx="-301.279" cy="-99.867" r="2.771"/></g><path style="fill:#000;fill-opacity:1;stroke:#000;stroke-width:1;stroke-linejoin:round;stroke-miterlimit:4;stroke-dasharray:none;stroke-opacity:1" d="M273.335 91.64c-1.473-1.676-3.073-3.235-4.61-4.852-1.879-1.616-3.66-3.353-5.637-4.85-5.728-4.337-12.465-8.224-19.645-9.481-5.376-.942-6.669-.247-11.808.71-6.683 2.736-12.914 6.18-14.264 13.867-.537 3.056-.04 4.348.497 7.293.837 2.447 1.593 5.255 3.51 7.148.593.587 1.71 1.29 2.633.819 1.518-.775 2.845-1.877 4.267-2.816.271-.685.64-1.34.814-2.056 1.186-4.868.095-10.953-1.415-15.597-.58-1.784-1.328-3.51-1.992-5.265-3.168-6.756-6.162-13.965-11.515-19.361-3.482-3.51-4.62-3.74-8.896-6.096-1.77-.513-3.494-1.235-5.312-1.539-5.563-.93-11.35.1-16.458 2.383-4.363 1.95-7.454 4.586-11.368 7.42-1.193 1.347-2.491 2.609-3.581 4.041-3.063 4.027-5.275 8.765-6.27 13.732-.76 3.796-.528 5.091-.435 8.86.218 1.269.331 2.56.654 3.807.982 3.791 3.046 7.27 6.162 9.67.535.413 1.136.735 1.704 1.102.51.22 1.001.492 1.53.66 2.386.762 4.128-.449 6.064-2.07.284-.237.302-.695.318-1.065.02-.43-.142-.85-.213-1.276-.3-.459-.526-.973-.897-1.375-2.652-2.879-7.123-2.977-10.701-2.426-1.467.226-2.894.662-4.34.993-1.692.707-3.444 1.284-5.075 2.12-6.542 3.356-12.542 7.484-17.372 13.082-4 4.635-5.192 7.205-8.294 12.468-4.31 8.428-7.242 17.586-7.298 27.126-.032 5.438.495 6.76 1.53 11.976.653 1.757 1.18 3.566 1.957 5.272 2.124 4.669 5.267 8.99 9.215 12.285 3.067 2.558 4.677 3.172 8.163 5.003 6.709 2.888 13.872 4.447 21.088 5.38 2.87.305 4.35.801 6.385-2.334.212-.326-.71-.323-1.085-.43-.56-.16-1.139-.244-1.709-.367-5.829-.82-11.828.2-17.058 2.95-2.365 1.243-4.606 2.709-6.91 4.063-1.332 1.15-2.753 2.206-3.996 3.452-5.584 5.597-9.628 12.773-12.748 19.975-.799 1.844-1.453 3.746-2.18 5.62-.553 1.847-1.2 3.669-1.66 5.541-1.602 6.496-2.29 13.58-.717 20.157.317 1.326.851 2.59 1.277 3.886.63 1.142 1.172 2.336 1.89 3.425 2.209 3.35 5.378 6.38 8.816 8.46.475.287.99.506 1.484.759.301.07.621.337.904.212 1.298-.571 2.671-1.17 3.634-2.21.264-.286-.563-.554-.905-.74-.515-.281-1.079-.467-1.637-.647-1.623-.525-4.914-1.3-6.38-1.663-11.484-2.824-22.418-7.408-33.597-11.188-2.641-.893-5.308-1.708-7.962-2.562-2.669-.656-5.304-1.465-8.006-1.966-7.584-1.409-15.458-1.737-23.013.042-6.095 1.434-6.942 2.34-12.3 5.246-2.46 1.844-5.107 3.46-7.377 5.531-3.647 3.33-6.842 9.37-7.884 14.193-.853 3.948-.429 4.863.038 8.722.506 1.3.873 2.665 1.518 3.902 2.07 3.97 5.385 7.014 9.207 9.255 3.39 1.986 5.623 2.66 9.299 4.067 8.536 2.795 17.557 4.613 26.58 3.792 1.53-.139 3.037-.461 4.555-.692 4.883-1.092 8.969-3.374 13.066-6.234.92-.642 2.253-2.062 2.884-3.096.17-.279.235-.61.352-.916-.29-.497-.298-.858-1.112-.396-1.477.838-2.935 1.73-4.262 2.79-.95.758-1.626 3.444-1.895 4.54-.253 3.025.273 5.764 2.69 7.845 1.692 1.455 3 1.798 5.053 2.658 4.62 1.316 9.294 1.836 13.873-.035 3.311-1.352 6.586-4.207 9.279-6.206 2.876-2.906 5.055-6.357 7.263-9.767.974-1.505 2.151-3.5 3.407-4.846.484-.52 1.08-.923 1.62-1.384-.498.406-1.505.575-1.494 1.217.01.51 1.041-.012 1.52.163.598.22 1.132.602 1.635.995 2.135 1.666 4.065 4.259 5.83 6.3 3.227 3.657 6.558 7.353 10.731 9.966 2.85 1.785 3.574 1.868 6.708 3.02 1.203.228 2.388.586 3.609.682 2.336.185 5.289-.133 7.51-.906 3.075-1.07 7.55-4.16 9.672-5.895 1.112-.91 1.939-2.12 2.908-3.18 5.403-6.821 7.731-15.28 10.167-23.476.771-1.968 1.02-4.372 2.387-6.086.254-.32 1.26-1.037.947-.775-2.503 2.098-3.001 1.41-.762 2.352 3.154 2.064 5.582 5.007 8.257 7.62 2.537 2.478 3.146 2.96 5.823 5.332 4.94 4.26 10.689 7.865 17.263 8.835 1.116.165 2.251.138 3.377.207 1.047-.116 2.111-.124 3.14-.348 3.691-.805 7.982-3.294 10.022-6.527 1.317-2.087 1.389-3.234 1.957-5.589.781-4.893-.397-9.7-1.207-14.495-.001-.289-.1-.595-.003-.868.04-.113.441-.166.347-.092-.912.711-2.132 1.092-2.82 2.021-.212.286.59.395.876.604 2.676 1.955-.555-.289 2.546 1.83 2.132 1.209 5.803 3.164 8.3 1.986 1.52-.716 2.924-1.654 4.387-2.481 1.751-1.759 2.872-4.002 2.87-6.53-.002-1.741-.343-2.351-.87-4-.838-1.84-1.903-3.624-3.366-5.043-.013-.013-1.172-1.148-1.636-.833-1.122.763-2.077 1.746-3.115 2.62.188.373.33.773.564 1.12 2.079 3.064 5.169 3.774 8.543 4.587 4.059.8 8.173 1.33 12.19 2.332 2.57.641 4.55 1.304 7.08 2.098 5.757 1.817 11.597 3.932 17.716 4.01 1.08.014 2.154-.134 3.232-.2 4.346-.912 9.867-4.323 11.296-8.34.99-3.271.427-3.983-.135-7.45-2.833-6.659-1.515-9.56-3.432-17.726-.498 10.41.778 10.957.59 19.227.46 3.343 1.004 4.178-.02 7.308-4.15 3.196-.514 5.312-9.026 5.39-6.124.021-11.994-2.085-17.75-3.903-2.115-.656-4.938-1.56-7.092-2.118-3.96-1.027-8.018-1.586-12.013-2.447-3.01-.764-6.364-1.646-8.1-4.507-.189-.31-.271-.675-.407-1.013-1.017.396-2.038.781-3.051 1.187-.187.075.378-.248.572-.194.393.108.735.371 1.043.638 1.505 1.305 2.544 3.093 3.387 4.864.203.652.472 1.288.607 1.958.633 3.136-.551 6.115-2.898 8.202.529-.287 1.479-.268 1.588-.86.094-.513-.988.376-1.508.42-2.171.189-4.743-1.157-6.544-2.214-1.628-1.165-1.024-.682-2.442-1.877-.28-.236-.475-.773-.836-.713-1.36.228-2.605.917-3.854 1.5-.112.052-.118.228-.117.352.003.287.087.567.13.85 1.102 4.685 2.147 9.433 1.317 14.265-.618 2.318-.71 3.44-2.071 5.47-.529.787-1.385 1.327-1.877 2.139-.104.173.792-.123.606-.042-2.763 1.21-2.82.99-5.846 1.37-1.117-.051-2.244-.005-3.353-.152-6.557-.87-12.296-4.413-17.201-8.664-2.753-2.457-3.172-2.762-5.759-5.342-2.169-2.163-4.145-4.558-6.456-6.577-.529-.461-1.11-.859-1.665-1.288-.492-.245-.937-.842-1.476-.735-1.145.227-4.188 1.194-5.212 2.755-1.163 1.773-1.286 4.031-1.979 5.977-2.198 8.227-4.64 16.574-10.125 23.291-1.006 1.056-2.066 2.062-3.016 3.168-.216.251-.184.698-.46.88-3.127 2.077-7.007 2.912-10.723 2.629-1.197-.091-2.361-.436-3.542-.654-3.102-1.13-3.796-1.206-6.63-2.952-4.169-2.569-7.515-6.215-10.694-9.882-.365-.433-3.526-4.197-4.011-4.718-.942-1.011-3.513-3.672-5.254-3.091-1.65.55-3.099 1.58-4.648 2.371-.484.462-1.017.877-1.453 1.384-1.18 1.377-2.263 3.29-3.212 4.788-2.163 3.414-4.37 6.814-7.265 9.672-.878 2.146-.368 1.583-3.826 3.058-4.486 1.913-9.09 1.478-13.636.141-2.001-.858-3.208-1.174-4.847-2.602-2.354-2.052-2.763-4.682-2.365-7.62.46-1.558.434-1.87 1.294-3.24.271-.43 1.437-1.217.928-1.211-.951.011-1.676.918-2.574 1.231-.25.087.476-.751.661-.437-.751 2.154-1.565 1.925-2.942 3.63-.086.106.526-.032.407.034-3.219 1.79-3.747 1.725-7.37 2.814-1.512.242-3.012.576-4.536.727-9.006.898-18.064-.807-26.592-3.614-3.573-1.387-5.867-2.095-9.147-4.068-3.699-2.225-6.953-5.29-8.955-9.16-.628-1.213-.983-2.549-1.475-3.823-.485-3.773-.904-4.649-.103-8.518.696-3.36 2.115-6.555 4.024-9.397.948-1.41 4.279-5.246 5.754-6.966 5.38-2.99 6.247-3.928 12.38-5.434 7.562-1.858 15.46-1.604 23.073-.218 2.702.491 5.338 1.294 8.006 1.942 2.647.855 5.31 1.664 7.94 2.567 11.014 3.78 21.72 8.462 32.927 11.677 1.474.409 4.501 1.201 6.105 1.787.503.184.979.434 1.464.66.175.081.336.33.517.261 1.162-.435 2.314-.96 3.312-1.696.242-.178-.598-.056-.898-.083-.506-.226-1.033-.41-1.52-.676-3.502-1.91-6.698-4.88-8.898-8.198-.708-1.068-1.24-2.243-1.86-3.365-1.22-3.601-1.656-4.25-2.05-8.157-.723-7.149.7-14.29 2.931-21.052.722-1.862 1.375-3.753 2.167-5.586 3.102-7.186 7.149-14.33 12.79-19.847 1.268-1.24 2.716-2.284 4.074-3.425.436-.29.838-.639 1.308-.868 5.348-2.61 10.662-3.892 16.58-2.868.524.13 1.055.24 1.574.393.297.088.577.436.868.33 1.248-.454 2.331-1.273 3.493-1.918.161-.09-.309.228-.491.252-.42.057-.846.002-1.269-.015-.593-.024-1.186-.073-1.779-.11-7.317-.686-14.587-2.112-21.368-5.034-3.51-1.818-5.031-2.377-8.128-4.917-3.945-3.234-7.137-7.466-9.294-12.081-.786-1.682-1.319-3.471-1.978-5.206-1.076-5.117-1.626-6.484-1.651-11.827-.046-9.45 2.814-18.525 7.062-26.88 3.172-5.392 4.17-7.658 8.28-12.395 3.423-3.945 8.423-8.305 13.185-10.615 1.616-.784 3.311-1.395 4.967-2.092 1.433-.337 2.844-.778 4.297-1.011 3.377-.542 7.862-.557 10.291 2.332.324.386.489.88.733 1.32.024.395.136.796.07 1.186-.122.723-1.994 2.847 1.504.007.284-.23-.71.219-1.076.223-1.142.012-1.746-.382-2.792-.82-.554-.356-1.14-.668-1.663-1.07-3.074-2.361-5.132-5.702-6.141-9.433-.331-1.222-.465-2.489-.697-3.733-.134-3.788-.383-4.9.371-8.726.965-4.9 3.125-9.574 6.155-13.537 1.081-1.414 2.371-2.655 3.557-3.982.64-.678 1.158-1.495 1.92-2.034 6.023-4.268 13.945-6.473 21.295-5.33 1.816.282 3.541.982 5.312 1.473 4.347 2.32 5.378 2.476 8.947 5.956 5.43 5.296 8.635 12.4 11.455 19.3.6 1.78 1.288 3.533 1.797 5.342 1.306 4.641 2.278 11.025.667 15.747-.246.72-.712 1.344-1.068 2.016.647-.235 1.36-.337 1.942-.704.35-.222-.811.318-1.22.25-.495-.084-.96-.356-1.342-.681-2.012-1.713-2.808-4.51-3.687-6.863-.223-1.138-.576-2.257-.668-3.413-.207-2.58.102-5.033 1.253-7.39.61-1.248 1.55-2.307 2.347-3.445.386-.552.638-1.256 1.203-1.622 1.48-.958 3.19-1.502 4.784-2.253 5.184-1.066 6.527-1.799 11.987-.976 7.27 1.095 14.14 4.819 19.93 9.188 1.97 1.487 3.726 3.238 5.59 4.857 1.507 1.628 3.088 3.19 4.522 4.883 3.722 4.395 6.919 12.925 8.958 18.318l-5.883-16.898s.268-.453-1.384-2.428z" transform="rotate(-16.224 254.454 546.635) scale(1.43502)"/><path style="fill:#00adef;fill-opacity:1;stroke:none;stroke-width:.272892" d="M193.05 50.247c-7.3.225-14.767 3.077-19.624 8.676-6.394 6.608-10.249 15.924-9.304 25.177.347 3.187.956 6.625 2.931 9.197 3.276.207 7.297-.3 9.668 2.564 1.104.967 1.488 2.944-.08 3.693-1.96 1.803-4.94 1.602-6.928-.03-2.048-1.177-3.283-3.234-4.897-4.851-1.932-.983-4.108.357-6.004.85-12.607 4.835-21.606 16.035-27.078 28.023-3.78 7.977-5.904 16.78-5.535 25.634.078 7.001 2.226 13.999 5.956 19.915 3.664 5.628 8.925 10.208 15.14 12.809 4.58 2.02 9.46 3.627 14.47 4.035 3.312.099 6.716-.255 9.948.645-.754 1.324-2.284 1.882-3.791 1.631-3.291.129-6.48-1.08-9.75-.95-5.723.982-10.96 3.99-14.835 8.297-7.829 8.382-12.79 19.113-15.712 30.116-2.282 9.085-2.598 19.518 2.759 27.628 2.52 3.685 5.992 6.995 10.419 8.134 1.685.365-.207 1.147-.887 1.55-.899.618-1.818.686-2.694-.038-4.032-2.537-8.91-3.067-13.277-4.78-14.07-4.666-27.65-11.027-42.238-14.022-7.064-1.213-14.402-1.531-21.465-.162-5.29 1.03-10.449 3.134-14.708 6.461-4.7 4.968-9.036 10.854-9.85 17.849-.714 6.128 1.712 12.606 6.434 16.621 5.519 5.452 13.226 7.695 20.524 9.65 9.87 2.477 20.688 3.083 30.281-.801 2.164-.705 1.656-3.627 3.632-4.58 1.092-.71 2.518-1.87 3.585-2.033-.798 2.027-3.114 3.024-3.917 4.973.012 2.846.188 6.099 2.62 8.028 3.638 3.006 8.594 4.027 13.217 3.967 3.202-.28 6.55-1.126 9.153-3.067 2.41-3.472 5.187-6.717 7.444-10.316 1.69-2.22 2.921-4.915 5.066-6.73 1.656-.943 3.345-2.184 5.245-2.45 2.986 1.074 4.722 4.062 6.832 6.26 5.359 6.215 11.444 12.855 19.845 14.565 4.69.99 9.854.41 13.817-2.434 2.187-2.995 5.054-5.525 6.767-8.92 4.163-7.293 5.854-15.617 8.396-23.522 1.058-1.902 3.377-3.115 5.478-3.157 4.539 3.223 8.083 7.631 12.22 11.333 5.595 5.273 12.26 10.311 20.163 11.046 2.988-.02 6.61.706 9.015-1.54 4.617-4.47 4.614-11.567 3.529-17.457-.227-1.804-.985-3.564-.925-5.354 1.092-.365 2.3-1.595 3.484-1.03 2.691 2.307 6.01 4.503 9.677 4.45 2.115-.752 2.914-3.338 3.301-5.35.25-2.296.04-5.397-2.51-6.314-1.242-.86-2.68-1.895-3.192-3.345.948-.648 1.8-1.886 2.963-2.021 2.54 1.576 3.118 5.426 6.417 5.925 7.345 1.677 14.707 2.93 21.867 5.388 6.255 2.046 12.758 4 19.422 3.312 2.25.127 4.121-1.373 4.98-3.371.903-1.368 2.374-2.482 2.324-4.299.09-4.688-.735-9.304-.856-13.982-.259-3.178-.232-6.344-.394-9.491-.693-1.368-2.66-.473-3.919-.886-7.86-.758-15.706-1.611-23.53-2.735-1.983-11.8-3.794-23.684-5.855-35.484.116-1.065.67-2.146.682-3.3 1.652-11.862 3.296-23.78 4.856-35.614-.56-1.9-2.301-.136-2.85.891-6.92 8.397-17.709 13.616-28.622 13.015-12.449-.39-24.394-7.93-29.915-19.192-5.19-10.069-4.891-22.936.797-32.861 5.595-10.292 16.991-17.316 28.789-17.773 8.576-.52 17.043 2.582 23.768 7.704.973.903 2.56-.254 1.81-1.435-1.165-3.521-1.708-7.375-4.147-10.322-6.204-8.087-14.366-14.873-23.817-18.81-7.496-3.164-16.397-3.408-23.72.361-1.333 1.223.41 2.996.63 4.385 1.882 5.596 3.34 11.583 1.9 17.436-.799 2.104-3.005 3.34-4.942 4.219-2.401-.373-3.39-3.136-4.26-5.086-2.01-5.095-2.217-11.334 1.33-15.82.789-1.535 2.99-2.16 3.31-3.845-3.5-8.661-8.023-17.78-16.277-22.84-4.34-2.696-9.444-4.128-14.556-4.013Zm-13.2 249.045c-.022.065.038-.159 0 0z" transform="rotate(-16.224 254.454 546.635) scale(1.43502)"/><path style="fill:#00adef;fill-opacity:1;stroke:none;stroke-width:1.39505;stroke-linejoin:round;stroke-miterlimit:4;stroke-dasharray:none;stroke-opacity:1;paint-order:markers stroke fill" d="M223.445 78.763c-2.572 1.582-3.356 5.19-3.664 8.055-.228 4.767.957 10.312 4.823 13.401 2.673-.03 2.32-3.827 2.543-5.71.129-5.207-.619-10.58-2.703-15.356a1.162 1.162 0 0 0-.999-.39z" transform="rotate(-16.224 254.454 546.635) scale(1.43502)"/><path style="fill:#fff;fill-opacity:1;stroke:none;stroke-width:2.39667;stroke-linejoin:round;stroke-miterlimit:4;stroke-dasharray:none;stroke-opacity:1;paint-order:markers stroke fill" d="M366.39 310.158c-10.195 2.952-20.503 5.51-31.163 4.9-21.788 2.302-43.69 4.427-65.268 8.108-1.241 3.063 1.75 6.594 2.08 9.767 15.724 46.642 27.834 94.363 41.484 141.62 2.324 6.418 4.037 14.21 9.719 18.53 4.684.936 7.304-4.77 10.416-7.264 24.119-24.964 40.992-57.547 43.937-92.409.855-12.235 1.694-24.83-.928-36.892-4.65-9.369-8.281-19.564-7.863-30.191.08-5.365 1.026-11.345-1.79-16.132zM264.939 324.563c-14.091 5.664-28.007 11.937-41.677 18.59-.593 6.714 1.662 13.934 2.34 20.825 6.996 42.544 17.601 86.283 43.605 121.57 5.032 6.26 9.988 13.1 16.382 17.918 3.213-.828 1.439-5.604 1.728-8.023-4.005-39.887-10.542-79.472-15.047-119.304-2.134-16.967-3.864-33.998-6.355-50.913-.468.223-.571-.69-.976-.663zM365.267 222.774c-18.807-11.772-45.422-7.104-59.722 9.634-8.89 10.773-14.109 25.03-11.519 39.028 2.462 15.693 12.509 30.65 27.66 36.515 8.588 5.505 18.934 3.164 28.373 2.204 7.079-.416 14.172-2.14 19.608-6.96 17.284-11.768 24.478-35.472 17.127-54.969-3.78-10.752-11.291-20.235-21.527-25.452zm-18.19 22.192c5.035 3.28-.45 12.14-5.602 8.587-4.363-2.435-2.528-9.85 2.585-9.467a5.413 5.413 0 0 1 3.016.88zM442.815 286.038c-19.381-11.64-46.907-6.986-60.635 11.237-5.429 7.312-11.518 16.24-8.526 25.815 2.866 10.593 4.069 21.566 6.736 32.172 5.286 10.864 17.433 16.172 28.411 19.495 13.45 2.837 28.261.39 39.014-8.552 21.781-14.526 25.797-48.018 9.351-67.996-3.76-5.116-8.728-9.242-14.351-12.171zm-23.703 52.37c5.027 2.576 2.033 11.097-3.528 9.488-6.075-.868-4.172-10.69 1.66-10.002.65.03 1.3.192 1.868.514z" transform="rotate(-91.224 257.078 259.279)"/><path style="fill:#fff;fill-opacity:1;stroke:none;stroke-width:.566789;stroke-linejoin:round;stroke-miterlimit:4;stroke-dasharray:none;stroke-opacity:1;paint-order:markers stroke fill" d="M345.323 246.694c-1.788-1.046-4.354.508-4.022 2.619.031 2.035 2.575 3.342 4.232 2.12 1.698-1.083 1.671-3.838-.21-4.739z" transform="rotate(-91.224 257.078 259.279)"/></svg>